<?xml version="1.0" standalone="no"?>
<!DOCTYPE svg PUBLIC "-//W3C//DTD SVG 1.1//EN" "http://www.w3.org/Graphics/SVG/1.1/DTD/svg11.dtd" >
<svg xmlns="http://www.w3.org/2000/svg">
<metadata>Generated by IcoMoon</metadata>
<defs>
<font id="bold-builder" horiz-adv-x="1024">
<font-face units-per-em="1024" ascent="960" descent="-64" />
<missing-glyph horiz-adv-x="1024" />
<glyph unicode="&#x20;" horiz-adv-x="512" d="" />
<glyph unicode="&#xe900;" glyph-name="cancel" d="M659.288 431.635c-9.352 9.352-9.352 23.379 0 32.731l350.685 350.685c9.352 9.352 14.027 23.379 14.027 32.731s-4.676 23.379-14.027 32.731l-65.461 65.461c-9.352 9.352-23.379 14.027-32.731 14.027-14.027 0-23.379-4.676-32.731-14.027l-350.685-350.685c-9.352-9.352-23.379-9.352-32.731 0l-350.685 350.685c-9.352 9.352-23.379 14.027-32.731 14.027s-23.379-4.676-32.731-14.027l-65.461-65.461c-9.352-9.352-14.027-23.379-14.027-32.731s4.676-23.379 14.027-32.731l350.685-350.685c9.352-9.352 9.352-23.379 0-32.731l-350.685-350.685c-9.352-9.352-14.027-23.379-14.027-32.731s4.676-23.379 14.027-32.731l65.461-65.461c9.352-9.352 23.379-14.027 32.731-14.027s23.379 4.676 32.731 14.027l350.685 350.685c9.352 9.352 23.379 9.352 32.731 0l350.685-350.685c9.352-9.352 23.379-14.027 32.731-14.027s23.379 4.676 32.731 14.027l65.461 65.461c9.352 9.352 14.027 23.379 14.027 32.731s-4.676 23.379-14.027 32.731l-350.685 350.685z" />
<glyph unicode="&#xe901;" glyph-name="accordion" d="M0-37.053h1024v161.684h-1024v-161.684zM970.105 663.579h-916.211c-29.642 0-53.895-24.253-53.895-53.895v-323.368c0-29.642 24.253-53.895 53.895-53.895h916.211c29.642 0 53.895 24.253 53.895 53.895v323.368c0 29.642-24.253 53.895-53.895 53.895zM0 933.053v-161.684h1024v161.684h-1024z" />
<glyph unicode="&#xe902;" glyph-name="button" d="M916.211 717.474h-808.421c-59.284 0-107.789-48.505-107.789-107.789v-323.368c0-59.284 48.505-107.789 107.789-107.789h808.421c59.284 0 107.789 48.505 107.789 107.789v323.368c0 59.284-48.505 107.789-107.789 107.789zM916.211 286.316h-808.421v323.368h808.421v-323.368zM296.421 501.895h431.158v-107.789h-431.158v107.789z" />
<glyph unicode="&#xe903;" glyph-name="countdown" d="M512 755.2v204.8l-256-256 256-256v204.8c168.96 0 307.2-138.24 307.2-307.2s-138.24-307.2-307.2-307.2-307.2 138.24-307.2 307.2h-102.4c0-225.28 184.32-409.6 409.6-409.6s409.6 184.32 409.6 409.6-184.32 409.6-409.6 409.6zM456.158 185.242h-53.316v169.847l-52.361-15.36v40.346l100.762 34.884h4.915v-229.717zM676.113 279.108c0-30.993-6.963-54.955-20.958-71.817-13.858-16.794-33.451-25.19-58.778-25.19-25.6 0-45.397 8.465-59.392 25.395s-21.026 40.823-21.026 71.612v41.984c0 31.061 6.963 55.023 20.89 71.817 13.926 16.862 33.587 25.259 59.051 25.259s45.329-8.533 59.324-25.463 20.958-40.892 20.958-71.817v-41.779zM623.070 327.851c0 16.521-2.253 28.877-6.554 37.001-4.233 8.192-11.196 12.22-20.548 12.22-9.079 0-15.701-3.755-19.866-11.401-4.301-7.578-6.485-19.046-6.827-34.406v-58.641c0-17.135 2.116-29.696 6.554-37.615 4.301-7.987 11.059-11.947 20.548-11.947 8.943 0 15.633 3.891 20.002 11.605 4.301 7.714 6.554 19.866 6.69 36.318v56.866z" />
<glyph unicode="&#xe904;" glyph-name="counter" d="M102.4 345.6c0-225.28 184.32-409.6 409.6-409.6s409.6 184.32 409.6 409.6h-102.4c0-168.96-138.24-307.2-307.2-307.2s-307.2 138.24-307.2 307.2 138.24 307.2 307.2 307.2v-204.8l256 256-256 256v-204.8c-225.28 0-409.6-184.32-409.6-409.6zM456.158 185.242h-53.316v169.847l-52.361-15.36v40.346l100.762 34.884h4.915v-229.717zM676.113 279.108c0-30.993-6.963-54.955-20.958-71.817-13.858-16.794-33.451-25.19-58.778-25.19-25.6 0-45.397 8.465-59.392 25.395s-21.026 40.823-21.026 71.612v41.984c0 31.061 6.963 55.023 20.89 71.817 13.926 16.862 33.587 25.259 59.051 25.259s45.329-8.533 59.324-25.463 20.958-40.892 20.958-71.817v-41.779zM623.070 327.851c0 16.521-2.253 28.877-6.554 37.001-4.233 8.192-11.196 12.22-20.548 12.22-9.079 0-15.701-3.755-19.866-11.401-4.301-7.578-6.485-19.046-6.827-34.406v-58.641c0-17.135 2.116-29.696 6.554-37.615 4.301-7.987 11.059-11.947 20.548-11.947 8.943 0 15.633 3.891 20.002 11.605 4.301 7.714 6.554 19.866 6.69 36.318v56.866z" />
<glyph unicode="&#xe905;" glyph-name="custom_menu" d="M1024 284.052v107.789h-1024v-107.789h1024zM1024 607.421h-269.474v-107.789h269.474v107.789zM646.737 607.421h-269.474v-107.789h269.474v107.789zM269.474 607.421h-269.474v-107.789h269.474v107.789z" />
<glyph unicode="&#xe906;" glyph-name="grid_gallery" d="M0 478.073h300.679v360.825h-300.679v-360.825zM0 57.101h300.679v360.825h-300.679v-360.825zM360.825 57.101h300.679v360.825h-300.679v-360.825zM721.651 57.101h300.679v360.825h-300.679v-360.825zM360.825 478.073h300.679v360.825h-300.679v-360.825zM721.651 838.899v-360.825h300.679v360.825h-300.679z" />
<glyph unicode="&#xe907;" glyph-name="grid_gallery_2" d="M0 602.226h215.552v215.552h-215.552v-215.552zM0 332.743h215.552v215.552h-215.552v-215.552zM269.483 332.743h215.552v215.552h-215.552v-215.552zM538.965 332.743h215.552v215.552h-215.552v-215.552zM269.483 602.226h215.552v215.552h-215.552v-215.552zM538.965 817.778v-215.552h215.552v215.552h-215.552zM808.448 332.743h215.552v215.552h-215.552v-215.552zM0 63.26h215.552v215.552h-215.552v-215.552zM269.483 63.26h215.552v215.552h-215.552v-215.552zM538.965 63.26h215.552v215.552h-215.552v-215.552zM808.448 63.26h215.552v215.552h-215.552v-215.552zM808.448 817.778v-215.552h215.552v215.552h-215.552z" />
<glyph unicode="&#xe908;" glyph-name="grid_newpost" d="M0 277.315h455.087v-341.315h-455.087v341.315zM568.913 504.913h455.087v-568.913h-455.087v568.913zM568.913 960h455.087v-341.315h-455.087v341.315zM0 960v-568.913h455.087v568.913h-455.087zM324.77 524.854l-97.226 70.764-97.226-70.764 37.187 114.257-97.172 69.201h119.215l37.996 117.922 37.996-117.922h119.215l-97.226-69.201 37.241-114.257z" />
<glyph unicode="&#xe909;" glyph-name="grid_newpost_2" d="M0.862 431.239h300.679v-360.825h-300.679v360.825zM361.634 431.239h300.679v-360.825h-300.679v360.825zM722.459 431.239h300.679v-360.825h-300.679v360.825zM361.634 852.211h300.679v-360.825h-300.679v360.825zM722.459 852.211h300.679v-360.825h-300.679v360.825zM0.862 852.211v-360.825h300.679v360.825h-300.679zM220.699 564.035l-69.524 50.607-69.524-50.607 26.624 81.704-69.578 49.475h85.315l27.163 84.345 27.163-84.345h85.315l-69.524-49.475 26.57-81.704z" />
<glyph unicode="&#xe90a;" glyph-name="header" d="M932.972 879.158h-839.68c-51.308 0-93.292-41.984-93.292-93.292v-653.043c0-51.362 41.984-93.346 93.292-93.346h839.68c51.308 0 93.292 41.984 93.292 93.292v653.096c0 51.308-41.984 93.292-93.292 93.292zM553.553 367.158v-161.684h-80.842v161.684h-121.263l161.684 161.684 161.684-161.684h-121.263zM932.972 645.901h-839.68v139.965h839.68v-139.965z" />
<glyph unicode="&#xe90b;" glyph-name="Icon_image_holder" d="M103.316 855.552h357.592v102.184h-357.592c-56.212 0-102.184-45.972-102.184-102.184v-357.592h102.184v357.592zM409.816 395.776l-204.315-255.407h613.053l-153.277 204.315-103.747-138.456zM767.461 625.691c0-42.326-34.312-76.638-76.638-76.638s-76.638 34.312-76.638 76.638c0 42.326 34.312 76.638 76.638 76.638s76.638-34.312 76.638-76.638zM920.684 957.736h-357.592v-102.184h357.592v-357.592h102.184v357.592c0 56.212-45.972 102.184-102.184 102.184zM920.684 38.184h-357.592v-102.184h357.592c56.212 0 102.184 45.972 102.184 102.184v357.592h-102.184v-357.592zM103.316 395.776h-102.184v-357.592c0-56.212 45.972-102.184 102.184-102.184h357.592v102.184h-357.592v357.592z" />
<glyph unicode="&#xe90c;" glyph-name="image" d="M1024.539 49.287v796.888c0 62.572-51.2 113.826-113.826 113.826h-796.888c-62.572 0-113.826-51.254-113.826-113.826v-796.888c0-62.626 51.254-113.826 113.826-113.826h796.888c62.626 0 113.826 51.2 113.826 113.826zM313.075 362.361l142.282-171.331 199.195 256.701 256.162-341.531h-796.888l199.249 256.162z" />
<glyph unicode="&#xe90d;" glyph-name="Inner_row" d="M614.4 618.667h-614.4v-102.4h614.4v102.4zM614.4 823.467h-614.4v-102.4h614.4v102.4zM819.2 413.867v204.8h-102.4v-204.8h-204.8v-102.4h204.8v-204.8h102.4v204.8h204.8v102.4h-204.8zM0 311.467h409.6v102.4h-409.6v-102.4z" />
<glyph unicode="&#xe90e;" glyph-name="latest_post" d="M102.4 755.2h-102.4v-716.8c0-56.32 46.080-102.4 102.4-102.4h716.8v102.4h-716.8v716.8zM921.6 960h-614.4c-56.32 0-102.4-46.080-102.4-102.4v-614.4c0-56.32 46.080-102.4 102.4-102.4h614.4c56.32 0 102.4 46.080 102.4 102.4v614.4c0 56.32-46.080 102.4-102.4 102.4zM870.4 499.2h-512v102.4h512v-102.4zM665.6 294.4h-307.2v102.4h307.2v-102.4zM870.4 704h-512v102.4h512v-102.4z" />
<glyph unicode="&#xe90f;" glyph-name="location" d="M513.132 960c-198.117 0-358.4-160.283-358.4-358.4 0-268.827 358.4-665.6 358.4-665.6s358.4 396.773 358.4 665.6c0 198.117-160.283 358.4-358.4 358.4zM513.132 473.6c-70.656 0-128 57.344-128 128s57.344 128 128 128 128-57.344 128-128-57.344-128-128-128z" />
<glyph unicode="&#xe910;" glyph-name="map" d="M995.544 960l-9.108-1.725-303.805-117.76-341.315 119.485-320.835-108.113c-11.965-3.934-20.48-14.174-20.48-27.271v-860.16c0-15.953 12.504-28.456 28.456-28.456l9.108 1.725 303.805 117.76 341.315-119.485 320.835 108.113c11.965 3.988 20.48 14.228 20.48 27.325v860.106c0 15.953-12.504 28.456-28.456 28.456zM682.685 49.772l-341.315 120.024v676.433l341.315-120.024v-676.433z" />
<glyph unicode="&#xe911;" glyph-name="percentage_bar" d="M56.889 759.296c0 59.62 19.342 107.975 58.027 145.067s89.316 55.637 152.007 55.637c63.602 0 114.688-18.318 153.372-54.955s58.027-86.357 58.027-149.049v-48.014c0-59.961-19.342-108.203-58.027-144.612s-89.316-54.613-152.007-54.613c-63.147 0-114.119 18.318-153.031 54.955s-58.368 86.016-58.368 148.252v47.332zM184.889 707.186c0-26.852 7.623-48.356 22.983-64.74 15.36-16.27 35.499-24.462 60.302-24.462s44.715 8.306 59.392 24.804c14.677 16.498 21.959 38.684 21.959 66.332v49.721c0 26.738-7.282 48.469-21.959 64.967-14.677 16.612-34.93 24.804-60.644 24.804-24.462 0-44.26-8.192-59.278-24.462-15.246-16.27-22.756-39.026-22.756-68.039v-48.924zM306.176 47.957l-93.98 50.745 473.998 758.67 93.98-50.631-473.998-758.784zM520.875 213.276c0 59.961 19.57 108.316 58.709 144.953s89.771 55.068 152.007 55.068c63.147 0 114.119-18.091 153.031-54.386s58.368-86.13 58.368-149.618v-48.014c0-59.506-19.115-107.634-57.344-144.384s-89.202-54.841-152.804-54.841c-64.057 0-115.371 18.432-154.055 55.296s-58.027 85.788-58.027 146.66v49.266zM648.875 160.484c0-24.576 7.964-45.625 24.007-63.033s35.954-26.169 59.961-26.169c54.272 0 81.351 30.151 81.351 90.453v51.086c0 26.738-7.509 48.356-22.642 64.626-15.132 16.384-35.157 24.576-59.961 24.576s-44.942-8.192-60.075-24.576c-15.019-16.27-22.642-38.457-22.642-66.674v-50.29z" />
<glyph unicode="&#xe912;" glyph-name="price_list" d="M995.436 468.696l-461.555 461.555c-18.486 18.486-44.14 29.75-72.327 29.75h-358.993c-56.428 0-102.562-46.134-102.562-102.562v-358.993c0-28.187 11.264-53.841 30.235-72.812l461.555-461.555c18.486-18.486 44.086-29.75 72.327-29.75 28.187 0 53.841 11.264 72.327 30.235l358.993 358.993c18.971 18.486 30.235 44.086 30.235 72.327 0 28.187-11.803 54.326-30.235 72.812zM179.469 703.569c-42.577 0-76.908 34.385-76.908 76.908s34.385 76.962 76.908 76.962 76.962-34.385 76.962-76.908-34.385-76.962-76.962-76.962z" />
<glyph unicode="&#xe913;" glyph-name="separator" d="M0-64h113.772v113.772h-113.772v-113.772zM113.772 732.456h-113.772v-113.772h113.772v113.772zM0 163.544h113.772v113.772h-113.772v-113.772zM227.544-64h113.772v113.772h-113.772v-113.772zM113.772 960h-113.772v-113.772h113.772v113.772zM341.315 960h-113.772v-113.772h113.772v113.772zM796.456 960h-113.772v-113.772h113.772v113.772zM568.913 732.456h-113.826v-113.772h113.772v113.772zM568.913 960h-113.826v-113.772h113.772v113.772zM910.228 163.544h113.772v113.772h-113.772v-113.772zM455.087-64h113.772v113.772h-113.772v-113.772zM0 391.087h1024v113.772h-1024v-113.772zM910.228 960v-113.772h113.772v113.772h-113.772zM910.228 618.685h113.772v113.772h-113.772v-113.772zM455.087 163.544h113.772v113.772h-113.772v-113.772zM682.685-64h113.772v113.772h-113.772v-113.772zM910.228-64h113.772v113.772h-113.772v-113.772z" />
<glyph unicode="&#xe914;" glyph-name="separator_2" d="M331.294 146.824h135.529v-180.706h90.353v180.706h135.529l-180.706 180.706-180.706-180.706zM692.706 779.294h-135.529v180.706h-90.353v-180.706h-135.529l180.706-180.706 180.706 180.706zM150.588 508.235v-90.353h722.824v90.353h-722.824z" />
<glyph unicode="&#xe915;" glyph-name="service" d="M42.667 576h896v-128h-896v128zM42.667 320h896v-128h-896v128zM42.667 64h896v-128h-896v128zM490.667 704c70.4 0 128 57.6 128 128s-57.6 128-128 128-128-57.6-128-128 57.6-128 128-128z" />
<glyph unicode="&#xe916;" glyph-name="slider2" d="M0 774.171h93.184v-652.342h-93.184v652.342zM186.368 774.171h93.184v-652.342h-93.184v652.342zM978.513 774.171h-559.158c-25.654 0-46.619-20.965-46.619-46.619v-559.158c0-25.654 20.965-46.619 46.619-46.619h559.158c25.654 0 46.619 20.965 46.619 46.619v559.158c0 25.654-20.965 46.619-46.619 46.619zM465.974 215.013l116.467 146.755 83.429-100.19 116.467 150.043 149.558-196.662h-465.92z" />
<glyph unicode="&#xe917;" glyph-name="slider_container" d="M431.158 710.791h230.562v65.859h-230.562c-36.217 0-65.859-29.642-65.859-65.859v-230.562h65.859v230.562zM628.79 414.37l-131.773-164.648h395.264l-98.843 131.719-66.829-89.25zM859.352 562.58c0-27.295-22.127-49.421-49.421-49.421s-49.421 22.127-49.421 49.421c0 27.295 22.127 49.421 49.421 49.421s49.421-22.127 49.421-49.421zM958.141 776.65h-230.562v-65.859h230.562v-230.562h65.859v230.562c0 36.217-29.642 65.859-65.859 65.859zM958.141 183.862h-230.562v-65.859h230.562c36.217 0 65.859 29.642 65.859 65.859v230.562h-65.859v-230.562zM431.158 414.37h-65.859v-230.562c0-36.217 29.642-65.859 65.859-65.859h230.562v65.859h-230.562v230.562zM0 582.737h107.789v-323.368h-107.789v323.368zM161.684 690.526h107.789v-538.947h-107.789v538.947z" />
<glyph unicode="&#xe918;" glyph-name="tabs" d="M0-37.053h1024v161.684h-1024v-161.684zM970.105 663.579h-916.211c-29.642 0-53.895-24.253-53.895-53.895v-323.368c0-29.642 24.253-53.895 53.895-53.895h916.211c29.642 0 53.895 24.253 53.895 53.895v323.368c0 29.642-24.253 53.895-53.895 53.895zM0 933.053v-161.684h1024v161.684h-1024z" />
<glyph unicode="&#xe919;" glyph-name="tabs_2" d="M930.924 866.924h-837.848c-51.2 0-93.076-41.93-93.076-93.13v-651.641c0-51.2 41.876-93.076 93.076-93.076h837.794c51.2 0 93.076 41.876 93.076 93.076v651.641c0.054 51.2-41.822 93.13-93.022 93.13zM930.924 122.206h-837.848v651.587h465.435v-186.206h372.359v-465.381z" />
<glyph unicode="&#xe91a;" glyph-name="text2" d="M640.054 128.512h-638.922v-127.784h638.922v127.784zM1023.461 639.704h-1022.329v-127.784h1022.329v127.784zM1.132 256.296h1022.329v127.784h-1022.329v-127.784zM1.132 895.272v-127.784h1022.329v127.784h-1022.329z" />
<glyph unicode="&#xe91b;" glyph-name="twitter" d="M881.664 667.974c0.745-8.657 0.745-17.408 0.745-26.159 0-266.24-202.659-573.068-573.068-573.068-114.129 0-220.16 33.047-309.341 90.391 16.198-1.862 31.744-2.513 48.593-2.513 94.115 0 180.783 31.837 250.042 86.109-88.529 1.862-162.816 59.857-188.323 139.636 12.474-1.955 24.948-3.165 38.074-3.165 18.060 0 36.119 2.513 52.969 6.889-92.253 18.711-161.42 99.793-161.42 197.725 0 0.559 0 1.862 0 2.513 26.81-14.988 57.996-24.297 91.043-25.6-54.272 36.212-89.833 97.932-89.833 167.75 0 37.423 9.961 71.773 27.462 101.655 99.142-122.228 248.18-202.007 415.279-210.758-3.072 14.895-4.934 30.534-4.934 46.080 0 111.057 89.74 201.449 201.356 201.449 57.996 0 110.406-24.297 147.177-63.581 45.428 8.751 89.181 25.507 127.814 48.593-14.895-46.732-46.732-86.016-88.529-110.964 40.588 4.375 79.779 15.546 115.991 31.185-27.462-39.936-61.626-75.497-101.097-104.169z" />
<glyph unicode="&#xe91c;" glyph-name="copy-plus" d="M948.090 960h-565.871c-40.292 0-73.238-32.723-73.238-73.238v-171.631c15.583 0 320.779 0 332.8 0 77.245 0 140.021-62.776 140.021-140.021 0-14.47 0-323.896 0-327.457h166.289c40.292 0 73.238 32.723 73.238 73.238v565.871c0 40.515-32.723 73.238-73.238 73.238zM641.781 648.348h-565.871c-40.292 0-73.238-32.723-73.238-73.238v-566.094c0-40.292 32.723-73.238 73.238-73.238h566.094c40.292 0 73.238 32.723 73.238 73.238v566.094c-0.223 40.515-32.946 73.238-73.461 73.238zM639.332 216.042h-209.252v-216.376h-149.148v216.376h-209.252v144.25h209.252v216.376h149.148v-216.376h209.252v-144.25z" />
<glyph unicode="&#xe91d;" glyph-name="copies" d="M955.076 959.164h-533.228c-10.296 0-20.062-2.286-28.843-6.35-23.632-10.939-40.077-34.864-40.077-62.571v-34.46c17.769 0 412.393 0 429.829 0 76.395 0 138.546-62.151 138.546-138.546 0-20.026 0-407.991 0-427.859v-1.285h33.774c37.811 0 68.921 30.771 68.921 68.919v533.23c-0.002 38.003-30.918 68.921-68.924 68.921zM782.759 786.158h-533.228c-38.003 0-68.919-30.918-68.919-68.921v-39.706c29.457 0 408.927 0 421.538 0 76.395 0 138.546-62.151 138.546-138.546 0-13.665 0-393.151 0-423.895h42.065c38.003 0 68.921 30.918 68.921 68.919v533.228c-0.002 38.003-30.92 68.921-68.924 68.921zM602.149 607.906h-533.228c-38.003 0-68.921-30.918-68.921-68.921v-533.23c0-38.001 30.918-68.919 68.921-68.919h533.228c38.003 0 68.921 30.918 68.921 68.919v533.23c-0.002 38.003-30.918 68.921-68.921 68.921z" />
<glyph unicode="&#xe91e;" glyph-name="copy" d="M948.166 960h-566.032c-40.341 0-73.158-32.819-73.158-73.158v-171.707c15.549 0 320.712 0 332.896 0 77.165 0 139.943-62.778 139.943-139.943 0-14.445 0-323.876 0-327.544h166.351c40.339 0 73.158 32.819 73.158 73.16v566.034c-0.002 40.339-32.819 73.158-73.158 73.158zM641.868 648.352h-566.029c-40.339 0-73.16-32.819-73.16-73.16v-566.032c0.002-40.341 32.819-73.16 73.16-73.16h566.032c40.341 0 73.16 32.819 73.16 73.158v566.034c0.002 40.341-32.821 73.16-73.163 73.16z" />
<glyph unicode="&#xe91f;" glyph-name="garbage" d="M847.824 842.743h-156.899v13.464c0.004 57.228-46.564 103.792-103.792 103.792h-150.266c-57.236 0-103.792-46.564-103.792-103.796v-13.464h-156.899c-20.506 0-37.126-16.62-37.126-37.126v-123.923c0-20.506 16.62-37.126 37.126-37.126h1.064l53.424-674.371c1.53-19.306 17.643-34.193 37.011-34.193h488.654c19.367 0 35.48 14.888 37.011 34.193l53.424 674.371h1.064c20.506 0 37.126 16.62 37.126 37.126v123.927c-0.004 20.502-16.624 37.126-37.13 37.126zM407.327 856.204c0 16.29 13.254 29.544 29.54 29.544h150.266c16.29 0 29.544-13.254 29.544-29.544v-13.464h-209.35v13.464zM722.029 10.256l-44.263 0.004 15.713 352.512c0.912 20.485-14.954 37.827-35.435 38.743-20.481 0.875-37.832-14.954-38.743-35.435l-15.861-355.817h-54.311v354.162c0 20.506-16.62 37.126-37.126 37.126s-37.126-16.62-37.126-37.126v-354.162h-54.311l-15.861 355.817c-0.916 20.481-18.295 36.301-38.743 35.435-20.481-0.916-36.351-18.258-35.435-38.743l15.713-352.512h-44.263l-50.256 634.308h520.558l-50.248-634.312zM810.702 718.821v0h-597.4v49.671h597.4v-49.671z" />
<glyph unicode="&#xe920;" glyph-name="garbage-1" d="M83.349 712.335h35.721l83.349-696.161c1.588-16.67 15.876-28.577 32.546-28.577h554.071c16.67 0 30.164 11.907 32.546 28.577l83.349 696.161h35.721c18.257 0 32.546 14.288 32.546 32.546s-14.288 32.546-32.546 32.546h-249.253v99.225c0 18.257-14.288 32.546-32.546 32.546h-293.705c-18.257 0-32.546-14.288-32.546-32.546v-99.225h-249.253c-18.257 0-32.546-14.288-32.546-32.546s15.082-32.546 32.546-32.546zM397.693 844.105h228.614v-66.679h-228.614v66.679zM839.045 712.335l-78.586-660.44h-496.918l-78.586 660.44h654.090zM404.043 151.119c18.257 0 32.546 14.288 32.546 32.546v389.755c0 18.257-14.288 32.546-32.546 32.546s-32.546-14.288-32.546-32.546v-389.755c0-18.257 14.288-32.546 32.546-32.546zM619.957 151.119c18.257 0 32.546 14.288 32.546 32.546v389.755c0 18.257-14.288 32.546-32.546 32.546s-32.546-14.288-32.546-32.546v-389.755c0-18.257 15.082-32.546 32.546-32.546z" />
<glyph unicode="&#xe921;" glyph-name="paste" d="M896 960h-512c-70.609 0-128-57.391-128-128v-512c0-70.609 57.391-128 128-128h512c70.609 0 128 57.391 128 128v512c0 70.609-57.391 128-128 128zM668.444 466.74h-72.282v-186.060h-155.441v587.294h227.723c126.494 0 234.918-47.017 234.918-195.095 0-143.728-112.105-206.139-234.918-206.139zM192.084 288.042v415.958h-64.084c-70.609 0-128-57.391-128-128v-512c0-70.609 57.391-128 128-128h512c70.609 0 128 57.391 128 128v64.084h-415.958c-70.776-0.167-159.958 89.182-159.958 159.958zM661.082 745.161h-65.088v-155.441h65.088c61.407 0 90.353 30.787 90.353 83.158s-32.46 72.282-90.353 72.282z" />
<glyph unicode="&#xe922;" glyph-name="pencil-edit-button" d="M636.75 787.445l208.305-208.303-527.277-527.277-208.187 208.303 527.159 527.277zM1003.117 837.683l-92.896 92.896c-35.901 35.901-94.197 35.901-130.22 0l-88.985-88.985 208.305-208.305 103.796 103.796c27.845 27.847 27.845 72.753 0 100.598zM0.581-32.618c-3.791-17.061 11.613-32.348 28.676-28.199l232.121 56.28-208.187 208.303-52.61-236.384z" />
<glyph unicode="&#xe923;" glyph-name="plus-black-symbol" d="M1003.637 567.27c-13.58 13.577-30.073 20.363-49.461 20.363h-302.548v302.556c0 19.388-6.791 35.876-20.363 49.453-13.575 13.567-30.051 20.358-49.466 20.358h-139.623c-19.39 0-35.876-6.783-49.453-20.361s-20.363-30.066-20.363-49.453v-302.556h-302.546c-19.388 0-35.876-6.786-49.453-20.363s-20.361-30.051-20.361-49.451v-139.641c0-19.405 6.781-35.881 20.358-49.446 13.577-13.582 30.066-20.363 49.453-20.363h302.546v-302.561c0-19.388 6.786-35.889 20.363-49.461 13.577-13.564 30.063-20.345 49.453-20.345h139.633c19.403 0 35.881 6.781 49.461 20.345 13.582 13.58 20.363 30.073 20.363 49.461v302.561h302.543c19.405 0 35.889 6.781 49.461 20.363 13.575 13.564 20.363 30.040 20.363 49.446v139.641c-0.005 19.4-6.778 35.884-20.361 49.453z" />
<glyph unicode="&#xe924;" glyph-name="rubbish-bin-delete-button" d="M170.667 49.778c0-62.578 51.2-113.778 113.778-113.778h455.111c62.578 0 113.778 51.2 113.778 113.778v682.667h-682.667v-682.667zM910.222 903.111h-199.111l-56.889 56.889h-284.444l-56.889-56.889h-199.111v-113.778h796.444v113.778z" />
<glyph unicode="&#xe925;" glyph-name="switch" d="M0 448c0-150.017 121.601-271.827 271.827-271.827h480.346c150.017 0 271.827 121.601 271.827 271.827 0 150.017-121.601 271.827-271.827 271.827h-480.346c-150.226 0-271.827-121.81-271.827-271.827zM603.41 448c0 81.485 66.024 147.509 147.509 147.509s147.509-66.024 147.509-147.509-66.024-147.509-147.509-147.509-147.509 66.024-147.509 147.509z" />
<glyph unicode="&#xe926;" glyph-name="two" d="M192 288v416h-64c-70.688 0-128-57.312-128-128v-512c0-70.688 57.312-128 128-128h512c70.688 0 128 57.312 128 128v64h-416c-70.688 0-160 89.312-160 160zM896 960h-512c-70.688 0-128-57.312-128-128v-512c0-70.688 57.312-128 128-128h512c70.688 0 128 57.312 128 128v512c0 70.688-57.312 128-128 128z" />
<glyph unicode="&#xe927;" glyph-name="ic_sort_black_24px" d="M128 192h256v85.333h-256v-85.333zM128 704v-85.333h768v85.333h-768zM128 405.333h512v85.333h-512v-85.333z" />
<glyph unicode="&#xe928;" glyph-name="ic_save_black_24px" d="M725.333 832h-512c-47.36 0-85.333-38.4-85.333-85.333v-597.333c0-46.933 37.973-85.333 85.333-85.333h597.333c46.933 0 85.333 38.4 85.333 85.333v512l-170.667 170.667zM512 149.333c-70.827 0-128 57.173-128 128s57.173 128 128 128 128-57.173 128-128-57.173-128-128-128zM640 576h-426.667v170.667h426.667v-170.667z" />
<glyph unicode="&#xe929;" glyph-name="ic_report_black_24px" d="M671.147 832h-318.293l-224.853-224.853v-318.293l224.853-224.853h318.293l224.853 224.853v318.293l-224.853 224.853zM512 221.867c-30.72 0-55.467 24.747-55.467 55.467s24.747 55.467 55.467 55.467c30.72 0 55.467-24.747 55.467-55.467s-24.747-55.467-55.467-55.467zM554.667 405.333h-85.333v256h85.333v-256z" />
<glyph unicode="&#xe92a;" glyph-name="ic_link_black_24px" d="M166.4 448c0 72.96 59.307 132.267 132.267 132.267h170.667v81.067h-170.667c-117.76 0-213.333-95.573-213.333-213.333s95.573-213.333 213.333-213.333h170.667v81.067h-170.667c-72.96 0-132.267 59.307-132.267 132.267zM341.333 405.333h341.333v85.333h-341.333v-85.333zM725.333 661.333h-170.667v-81.067h170.667c72.96 0 132.267-59.307 132.267-132.267s-59.307-132.267-132.267-132.267h-170.667v-81.067h170.667c117.76 0 213.333 95.573 213.333 213.333s-95.573 213.333-213.333 213.333z" />
<glyph unicode="&#xe92b;" glyph-name="ic_create_black_24px" d="M128 224v-160h160l471.893 471.893-160 160-471.893-471.893zM883.627 659.627c16.64 16.64 16.64 43.52 0 60.16l-99.84 99.84c-16.64 16.64-43.52 16.64-60.16 0l-78.080-78.080 160-160 78.080 78.080z" />
<glyph unicode="&#xe92c;" glyph-name="ic_content_cut_black_24px" d="M411.307 634.027c9.813 21.333 15.36 44.8 15.36 69.973 0 94.293-76.373 170.667-170.667 170.667s-170.667-76.373-170.667-170.667 76.373-170.667 170.667-170.667c25.173 0 48.64 5.547 69.973 15.36l100.693-100.693-100.693-100.693c-21.333 9.813-44.8 15.36-69.973 15.36-94.293 0-170.667-76.373-170.667-170.667s76.373-170.667 170.667-170.667 170.667 76.373 170.667 170.667c0 25.173-5.547 48.64-15.36 69.973l100.693 100.693 298.667-298.667h128v42.667l-527.36 527.36zM256 618.667c-46.933 0-85.333 37.973-85.333 85.333s38.4 85.333 85.333 85.333 85.333-37.973 85.333-85.333-38.4-85.333-85.333-85.333zM256 106.667c-46.933 0-85.333 37.973-85.333 85.333s38.4 85.333 85.333 85.333 85.333-37.973 85.333-85.333-38.4-85.333-85.333-85.333zM512 426.667c-11.947 0-21.333 9.387-21.333 21.333s9.387 21.333 21.333 21.333 21.333-9.387 21.333-21.333-9.387-21.333-21.333-21.333zM810.667 832l-256-256 85.333-85.333 298.667 298.667v42.667z" />
<glyph unicode="&#xe92d;" glyph-name="ic_content_copy_black_24px" d="M682.667 917.333h-512c-46.933 0-85.333-38.4-85.333-85.333v-597.333h85.333v597.333h512v85.333zM810.667 746.667h-469.333c-46.933 0-85.333-38.4-85.333-85.333v-597.333c0-46.933 38.4-85.333 85.333-85.333h469.333c46.933 0 85.333 38.4 85.333 85.333v597.333c0 46.933-38.4 85.333-85.333 85.333zM810.667 64h-469.333v597.333h469.333v-597.333z" />
<glyph unicode="&#xe92e;" glyph-name="ic_add_black_24px" d="M810.667 405.333h-256v-256h-85.333v256h-256v85.333h256v256h85.333v-256h256v-85.333z" />
<glyph unicode="&#xe92f;" glyph-name="ic_clear_black_24px1" d="M810.667 686.507l-60.16 60.16-238.507-238.507-238.507 238.507-60.16-60.16 238.507-238.507-238.507-238.507 60.16-60.16 238.507 238.507 238.507-238.507 60.16 60.16-238.507 238.507z" />
<glyph unicode="&#xe930;" glyph-name="ic_delete_black_24px" d="M256 149.333c0-46.933 38.4-85.333 85.333-85.333h341.333c46.933 0 85.333 38.4 85.333 85.333v512h-512v-512zM810.667 789.333h-149.333l-42.667 42.667h-213.333l-42.667-42.667h-149.333v-85.333h597.333v85.333z" />
<glyph unicode="&#xe931;" glyph-name="ic_content_paste_black_24px" d="M810.667 874.667h-178.347c-17.92 49.493-64.853 85.333-120.32 85.333s-102.4-35.84-120.32-85.333h-178.347c-46.933 0-85.333-38.4-85.333-85.333v-682.667c0-46.933 38.4-85.333 85.333-85.333h597.333c46.933 0 85.333 38.4 85.333 85.333v682.667c0 46.933-38.4 85.333-85.333 85.333zM512 874.667c23.467 0 42.667-19.2 42.667-42.667s-19.2-42.667-42.667-42.667-42.667 19.2-42.667 42.667 19.2 42.667 42.667 42.667zM810.667 106.667h-597.333v682.667h85.333v-128h426.667v128h85.333v-682.667z" />
<glyph unicode="&#xe932;" glyph-name="ic_copy_plus_custom" d="M682.667 917.333h-512c-46.933 0-85.333-38.4-85.333-85.333v-597.333h85.333v597.333h512v85.333zM810.667 746.667h-469.333c-46.933 0-85.333-38.4-85.333-85.333v-597.333c0-46.933 38.4-85.333 85.333-85.333h469.333c46.933 0 85.333 38.4 85.333 85.333v597.333c0 46.933-38.4 85.333-85.333 85.333zM810.667 64h-469.333v597.333h469.333v-597.333zM537.6 307.2h-123.733v89.6h123.733v123.733h89.6v-123.733h123.733v-89.6h-123.733v-119.467h-89.6v119.467z" />
<glyph unicode="&#xe933;" glyph-name="ic_edit_custom" d="M384 315.733v-110.933h106.667l315.733 320-106.667 110.933-315.733-320zM883.2 610.133c12.8 8.533 12.8 29.867 0 38.4l-68.267 68.267c-12.8 12.8-25.6 12.8-38.4 0l-51.2-51.2 106.667-110.933 51.2 55.467zM793.6 473.6v-392.533h-571.733v733.867h571.733v-59.733h106.667v59.733c0 25.6-12.8 55.467-29.867 72.533s-42.667 29.867-76.8 29.867h-571.733c-34.133 0-55.467-8.533-76.8-29.867s-29.867-42.667-29.867-72.533v-733.867c0-25.6 12.8-55.467 29.867-72.533 21.333-21.333 42.667-29.867 72.533-29.867h571.733c25.6 0 55.467 12.8 72.533 29.867 21.333 21.333 29.867 46.933 29.867 72.533v392.533h-98.133z" />
<glyph unicode="&#xe934;" glyph-name="ic_add_circle_outline_black_24px" d="M554.667 661.333h-85.333v-170.667h-170.667v-85.333h170.667v-170.667h85.333v170.667h170.667v85.333h-170.667v170.667zM512 874.667c-235.52 0-426.667-191.147-426.667-426.667s191.147-426.667 426.667-426.667 426.667 191.147 426.667 426.667-191.147 426.667-426.667 426.667zM512 106.667c-188.16 0-341.333 153.173-341.333 341.333s153.173 341.333 341.333 341.333 341.333-153.173 341.333-341.333-153.173-341.333-341.333-341.333z" />
<glyph unicode="&#xe935;" glyph-name="ic_content_copy_custom" d="M810.667 746.667h-469.333c-46.933 0-85.333-38.4-85.333-85.333v-597.333c0-46.933 38.4-85.333 85.333-85.333h469.333c46.933 0 85.333 38.4 85.333 85.333v597.333c0 46.933-38.4 85.333-85.333 85.333zM810.667 64h-469.333v597.333h469.333v-597.333zM593.067 913.067v-85.333h85.333v85.333h-85.333zM422.4 913.067v-85.333h85.333v85.333h-85.333zM85.333 571.733v-85.333h85.333v85.333h-85.333zM251.733 913.067v-85.333h85.333v85.333h-85.333zM85.333 827.733h85.333v85.333c-42.667 0-85.333-42.667-85.333-85.333zM85.333 742.4v-85.333h85.333v85.333h-85.333zM85.333 401.067v-85.333h85.333v85.333h-85.333z" />
<glyph unicode="&#xe936;" glyph-name="ic_arrow_up_custom" d="M819.2 204.8l93.867 93.867-392.533 392.533-392.533-392.533 93.867-93.867 298.667 298.667 298.667-298.667z" />
<glyph unicode="&#xe937;" glyph-name="can" d="M947.031 713.706h-120.471v51.533h-81.651v194.761h-465.82v-194.761h-81.651v-51.533h-120.471v-120.471h90.477l40.317-657.235h608.469l40.317 657.235h90.481v120.471zM702.922 56.471h-381.852l-32.768 534.086h447.388l-32.768-534.086zM399.561 839.529h224.878v-74.29h-224.878v74.29z" />
<glyph unicode="&#xe938;" glyph-name="black" d="M682.667 846.222v37.926c0 41.72-34.134 75.852-75.852 75.852h-189.63c-41.72 0-75.852-34.132-75.852-75.852v-37.926h-151.704v-37.926h644.741v37.926h-151.704zM644.741 846.222h-265.481v37.926c0 22.756 15.17 37.926 37.926 37.926h189.63c22.756 0 37.926-15.17 37.926-37.926v-37.926zM189.63 49.778c0-64.475 49.303-113.778 113.778-113.778h417.185c64.475 0 113.778 49.303 113.778 113.778v720.593h-644.741v-720.593zM644.741 656.593h37.926v-606.815h-37.926v606.815zM493.037 656.593h37.926v-606.815h-37.926v606.815zM341.333 656.593h37.926v-606.815h-37.926v606.815z" />
<glyph unicode="&#xe939;" glyph-name="commerce" d="M64.52 960l118.634-963.642c2.774-15.262 10.059-29.138 21.854-41.626s24.628-18.732 38.504-18.732h536.976c13.876 0 26.709 6.244 38.504 18.732s19.079 26.364 21.854 41.626l118.634 963.642h-894.959zM797.138 597.854h-570.276l-29.138 241.431h628.553l-29.138-241.431z" />
<glyph unicode="&#xe93a;" glyph-name="delete" d="M844.885 934.431h-233.054c-5.333 14.894-19.536 25.569-36.268 25.569h-127.129c-16.729 0-30.926-10.675-36.265-25.569h-233.054c-58.796 0-106.631-47.835-106.631-106.628v-96.995c0-21.291 17.263-38.554 38.554-38.554h72.509v-717.7c0-21.291 17.263-38.554 38.554-38.554h579.795c21.288 0 38.554 17.263 38.554 38.554v717.697h72.512c21.291 0 38.554 17.263 38.554 38.554v96.995c0 58.796-47.835 106.631-106.631 106.631zM763.345 13.105h-502.687v679.146h502.687v-679.146zM874.408 769.359h-724.813v58.441c0 16.276 13.241 29.52 29.523 29.52h665.764c16.276 0 29.523-13.244 29.523-29.52l0.003-58.441zM410.969 146.134c21.291 0 38.554 17.266 38.554 38.554v406.312c0 21.291-17.263 38.554-38.554 38.554s-38.554-17.263-38.554-38.554v-406.312c0-21.288 17.263-38.554 38.554-38.554zM613.034 146.134c21.291 0 38.554 17.266 38.554 38.554v406.312c0 21.291-17.263 38.554-38.554 38.554-21.288 0-38.554-17.263-38.554-38.554v-406.312c0-21.288 17.263-38.554 38.554-38.554z" />
<glyph unicode="&#xe93b;" glyph-name="delete-1" d="M878.559 870.134h-232.668v89.866h-267.782v-89.866h-232.668v-212.841h49.547l47.298-721.293h539.428l47.298 721.293h49.547v212.841zM449.056 889.053h125.888v-18.919h-125.888v18.919zM216.388 799.187h591.224v-70.947h-591.224v70.947zM715.265 6.947h-406.53l-42.646 650.346h491.825l-42.649-650.346z" />
<glyph unicode="&#xe93c;" glyph-name="interface-1" d="M786.194 843.55h-122.618v16.284c-0.003 55.234-44.939 100.166-100.173 100.166h-102.814c-55.234 0-100.166-44.932-100.166-100.166v-16.284h-122.618c-60.668 0-110.027-49.359-110.027-110.027v-64.329c0-19.466 15.784-35.25 35.25-35.25h25.728l47.904-574.857c5.751-69.022 64.512-123.087 133.772-123.087h283.131c69.26 0 128.021 54.065 133.772 123.087l47.904 574.854h25.728c19.466 0 35.25 15.784 35.25 35.25v64.329c0.003 60.668-49.355 110.030-110.023 110.030zM430.925 859.834c0 16.356 13.309 29.665 29.665 29.665h102.814c16.36 0 29.668-13.309 29.668-29.665v-16.284h-162.147v16.284zM717.079 64.941c-2.731-32.771-30.63-58.44-63.516-58.44h-283.131c-32.885 0-60.785 25.669-63.516 58.44l-47.418 568.999h504.997l-47.418-568.999zM825.723 704.438h-627.443v29.082c0 21.797 17.732 39.529 39.529 39.529h548.385c21.797 0 39.529-17.732 39.529-39.529v-29.082z" />
<glyph unicode="&#xe93d;" glyph-name="interface" d="M861.105 684.605c-19.865 0-35.967-16.101-35.967-35.967v-602.648c0-21.12-17.147-38.476-38.476-38.476h-549.744c-21.12 0-38.476 17.147-38.476 38.476v602.857c0 19.865-16.101 35.967-35.757 35.967-19.865 0-35.967-16.101-35.967-35.967v-602.648c0-60.641 49.349-110.2 110.2-110.2h549.744c60.641 0 110.2 49.349 110.2 110.2v602.648c0 19.865-16.101 35.757-35.757 35.757zM956.249 801.287h-218.099v41.403c0 64.614-52.695 117.309-117.309 117.309h-217.89c-64.823 0-117.309-52.695-117.309-117.309v-41.403h-218.099c-19.865 0-35.757-16.101-35.757-35.967s16.101-35.757 35.757-35.757h888.707c19.865 0 35.967 16.101 35.967 35.757-0.209 20.074-16.101 35.967-35.967 35.967zM357.365 842.691c0 25.093 20.493 45.585 45.585 45.585h217.89c25.093 0 45.585-20.493 45.585-45.585v-41.403h-309.061v41.403zM547.862 130.679v451.045c0 19.865-16.101 35.757-35.757 35.757s-35.757-16.101-35.757-35.757v-451.045c0-19.865 16.101-35.757 35.757-35.757s35.757 15.892 35.757 35.757zM389.149 130.679v451.045c0 19.865-16.101 35.757-35.967 35.757s-35.757-16.101-35.757-35.757v-451.045c0-19.865 16.101-35.757 35.757-35.757 19.865 0 35.967 15.892 35.967 35.757zM706.366 130.679v451.045c0 19.865-16.101 35.757-35.757 35.757s-35.757-16.101-35.757-35.757v-451.045c0-19.865 16.101-35.757 35.757-35.757s35.757 15.892 35.757 35.757z" />
<glyph unicode="&#xe93e;" glyph-name="interface-2" d="M917.42 680.594h-812.931c-24.242 0-47.647-24.242-42.632-49.11l106.58-659.122c4.18-21.316 21.316-36.362 42.632-36.362h601.652c21.316 0 38.452 14.838 40.542 36.362l106.58 659.122c3.971 19.435-12.33 49.11-42.423 49.11zM776.568 21.264h-529.136l-91.742 573.858h712.62l-91.742-573.858zM981.368 808.49h-315.768v31.974c0 66.038-53.29 119.536-119.536 119.536h-68.336c-66.038 0-119.536-53.29-119.536-119.536v-31.974h-315.559c-23.406 0-42.632-19.226-42.632-42.632s19.226-42.632 42.632-42.632h938.736c23.406 0 42.632 19.226 42.632 42.632s-19.226 42.632-42.632 42.632zM580.336 808.49h-136.464v31.974c0 19.226 14.838 34.064 34.064 34.064h68.336c19.226 0 34.064-14.838 34.064-34.064v-31.974zM379.716 149.368c23.406 0 42.632 19.226 42.632 42.632v273.136c0 23.406-19.226 42.632-42.632 42.632s-42.632-19.226-42.632-42.632v-273.136c0-23.406 19.226-42.632 42.632-42.632zM622.968 149.368c23.406 0 42.632 19.226 42.632 42.632v273.136c0 23.406-19.226 42.632-42.632 42.632s-42.632-19.226-42.632-42.632v-273.136c0-23.406 19.226-42.632 42.632-42.632z" />
<glyph unicode="&#xe93f;" glyph-name="interface-3" d="M862.664 748.917h-701.328c-11.693 0-21.182-9.49-21.182-21.182v-770.552c0-11.693 9.49-21.182 21.182-21.182h701.339c11.693 0 21.182 9.49 21.182 21.182v770.552c-0.011 11.703-9.479 21.182-21.193 21.182zM411.129 59.165c0-8.77-7.117-15.887-15.887-15.887h-109.407c-8.77 0-15.887 7.117-15.887 15.887v566.587c0 8.77 7.117 15.887 15.887 15.887h109.397c8.77 0 15.887-7.117 15.887-15.887l0.011-566.587zM754.051 59.165c0-8.77-7.117-15.887-15.887-15.887h-109.407c-8.77 0-15.887 7.117-15.887 15.887v566.587c0 8.77 7.117 15.887 15.887 15.887h109.397c8.77 0 15.887-7.117 15.887-15.887l0.011-566.587zM878.043 890.882h-243.312c0.021 0.35 0.117 0.667 0.117 1.027v46.908c0 11.693-9.49 21.182-21.182 21.182h-203.319c-11.693 0-21.182-9.49-21.182-21.182v-46.908c0-0.35 0.085-0.667 0.106-1.027h-243.312c-11.693 0-21.182-9.49-21.182-21.182v-59.554c0-11.693 9.49-21.182 21.182-21.182h732.075c11.693 0 21.182 9.49 21.182 21.182v59.554c0.011 11.703-9.469 21.182-21.172 21.182zM596.189 888.647h-168.379v23.862c0 7.456 6.048 13.504 13.504 13.504h141.361c7.467 0 13.504-6.048 13.504-13.504v-23.862z" />
<glyph unicode="&#xe940;" glyph-name="recycle" d="M822.050 755.1h-620.1c-32.62 0-59.073-26.45-59.073-59.051 0-29.102 21.072-53.291 48.771-58.16v-650.94c0-28.14 22.801-50.95 50.947-50.95h538.812c28.137 0 50.938 22.812 50.938 50.95v650.94c27.702 4.87 48.774 29.059 48.774 58.16 0.006 32.6-26.45 59.051-59.068 59.051zM435.348 149.751c0-34.5-27.986-62.475-62.484-62.475s-62.458 27.975-62.458 62.475v390.699c0 34.5 27.961 62.461 62.458 62.461s62.484-27.961 62.484-62.461v-390.699zM713.594 149.751c0-34.5-27.961-62.475-62.458-62.475s-62.484 27.975-62.484 62.475v390.699c0 34.5 27.986 62.461 62.484 62.461s62.458-27.961 62.458-62.461v-390.699zM201.95 786.901h620.1c32.617 0 59.071 26.45 59.071 59.051 0 32.623-26.456 59.073-59.071 59.073h-119.103c-2.096 30.717-27.659 54.975-58.894 54.975h-264.104c-31.238 0-56.801-24.257-58.9-54.977h-119.1c-32.62 0-59.073-26.45-59.073-59.073 0-32.6 26.453-59.048 59.073-59.048z" />
<glyph unicode="&#xe941;" glyph-name="tool" d="M372.365 587.635h93.092v-465.454h-93.092v465.454zM791.274 29.090h-558.546v651.638h-93.092v-637.673c0-51.2 41.89-107.054 93.092-107.054h558.546c51.2 0 93.092 55.855 93.092 107.054v637.673h-93.092v-651.638zM558.546 587.635h93.092v-465.454h-93.092v465.454zM651.638 866.908v93.092h-279.273v-93.092h-325.82v-93.090h930.91v93.090z" />
<glyph unicode="&#xe942;" glyph-name="tool-1" d="M208.948 777.029h606.103c28.796 0 52.142 23.345 52.142 52.142s-23.345 52.142-52.142 52.142h-139.027c4.62 7.783 7.321 16.838 7.321 26.547 0 28.796-23.345 52.142-52.142 52.142h-238.415c-28.796 0-52.142-23.345-52.142-52.142 0-9.709 2.701-18.761 7.321-26.547h-139.020c-28.796 0-52.142-23.345-52.142-52.142s23.345-52.142 52.142-52.142zM848.217 688.061c-17.599 18.674-42.12 29.262-67.78 29.262h-536.873c-25.661 0-50.184-10.588-67.78-29.262s-26.71-43.785-25.184-69.397l35.408-595.067c2.927-49.197 43.677-87.598 92.961-87.598h466.069c49.284 0 90.034 38.4 92.961 87.598l35.408 595.067c1.523 25.612-7.592 50.72-25.188 69.397zM332.27 67.174c-1.008-0.080-2.016-0.115-3.010-0.115-20.731 0-38.258 16-39.822 37.007l-31.094 417.226c-1.644 22.018 14.874 41.195 36.892 42.833 22.063 1.679 41.195-14.878 42.833-36.892l31.094-417.222c1.644-22.014-14.874-41.195-36.892-42.836zM551.977 107.038c0-22.077-17.895-39.975-39.975-39.975s-39.975 17.898-39.975 39.975v417.222c0 22.080 17.895 39.975 39.975 39.975s39.975-17.895 39.975-39.975v-417.222zM765.656 521.292l-31.094-417.222c-1.564-21.006-19.094-37.007-39.822-37.007-0.998 0-1.999 0.038-3.010 0.115-22.018 1.641-38.536 20.818-36.892 42.833l31.094 417.222c1.641 22.018 20.794 38.56 42.833 36.892 22.018-1.637 38.536-20.815 36.892-42.833z" />
<glyph unicode="&#xe943;" glyph-name="tool-2" d="M974.229 589.499l-20.935 205.069c-2.198 21.87-20.748 38.491-42.875 38.491h-250.901c-10.497 71.641-72.646 126.941-147.712 126.941-75.112 0-137.274-55.3-147.77-126.941h-250.912c-22.127 0-40.665-16.622-42.875-38.491l-21.543-211.135c-1.216-12.004 2.747-24.009 10.941-32.998 8.159-8.942 19.778-14.062 31.934-14.062h91.594v-557.639c0-23.623 19.275-42.734 43.108-42.734h571.046c23.775 0 43.097 19.135 43.097 42.734v557.639h92.003c23.81 0 43.108 19.123 43.108 42.746-0.035 3.565-0.468 7.072-1.309 10.38zM511.807 874.438c27.328 0 50.578-17.276 59.426-41.378h-118.899c8.848 24.102 32.098 41.378 59.473 41.378zM754.198 21.48h-484.853v514.893h134.679v-365.182c0-11.829 9.632-21.367 21.543-21.367s21.566 9.538 21.566 21.367v365.182h129.29v-365.182c0-11.829 9.62-21.367 21.566-21.367 11.923 0 21.543 9.538 21.543 21.367v365.182h134.667v-514.893zM139.272 621.936l12.799 125.561h719.424l12.811-125.561h-745.034z" />
<glyph unicode="&#xe944;" glyph-name="one-column" d="M1007.77 111.447h-991.539v681.385h991.539v-681.385zM46.95 142.167h930.099v619.945h-930.099v-619.945z" />
<glyph unicode="&#xe945;" glyph-name="two-columns" d="M1007.77 111.447h-991.539v681.385h991.539v-681.385zM46.95 142.167h930.099v619.945h-930.099v-619.945zM512 688.742c-4.045 0-7.987 1.638-10.854 4.454-2.867 2.867-4.506 6.861-4.506 10.906s1.638 7.987 4.506 10.854c5.734 5.683 15.974 5.683 21.709 0 2.867-2.867 4.506-6.861 4.506-10.854 0-4.045-1.638-7.987-4.506-10.906-2.867-2.816-6.81-4.454-10.854-4.454zM496.64 307.717c0 8.494 6.861 15.36 15.36 15.36v0c8.499 0 15.36-6.866 15.36-15.36v0c0-8.448-6.861-15.36-15.36-15.36v0c-8.499 0-15.36 6.907-15.36 15.36zM496.64 406.835c0 8.448 6.861 15.36 15.36 15.36v0c8.499 0 15.36-6.912 15.36-15.36v0c0-8.499-6.861-15.36-15.36-15.36v0c-8.499 0-15.36 6.861-15.36 15.36zM496.64 505.907c0 8.499 6.861 15.36 15.36 15.36v0c8.499 0 15.36-6.861 15.36-15.36v0c0-8.499-6.861-15.36-15.36-15.36v0c-8.499 0-15.36 6.861-15.36 15.36zM496.64 604.979c0 8.499 6.861 15.36 15.36 15.36v0c8.499 0 15.36-6.861 15.36-15.36v0c0-8.499-6.861-15.36-15.36-15.36v0c-8.499 0-15.36 6.861-15.36 15.36zM512 193.28c-4.045 0-7.987 1.638-10.854 4.506-2.867 2.872-4.506 6.81-4.506 10.854s1.638 7.992 4.506 10.854c5.734 5.734 15.974 5.734 21.709 0 2.867-2.867 4.506-6.81 4.506-10.854s-1.638-7.987-4.506-10.854c-2.867-2.867-6.81-4.506-10.854-4.506z" />
<glyph unicode="&#xe946;" glyph-name="three-columns" d="M1007.77 111.447h-991.539v681.385h991.539v-681.385zM46.95 142.167h930.099v619.945h-930.099v-619.945zM358.4 689.306c-4.045 0-7.987 1.638-10.854 4.506s-4.506 6.81-4.506 10.854 1.638 7.987 4.506 10.854c5.734 5.734 16.026 5.734 21.709 0 2.867-2.867 4.506-6.81 4.506-10.854s-1.638-7.987-4.506-10.854c-2.867-2.867-6.81-4.506-10.854-4.506zM343.040 308.326c0 8.499 6.861 15.36 15.36 15.36v0c8.499 0 15.36-6.861 15.36-15.36v0c0-8.494-6.861-15.36-15.36-15.36v0c-8.499 0-15.36 6.866-15.36 15.36zM343.040 407.398c0 8.499 6.861 15.36 15.36 15.36v0c8.499 0 15.36-6.861 15.36-15.36v0c0-8.448-6.861-15.36-15.36-15.36v0c-8.499 0-15.36 6.912-15.36 15.36zM343.040 506.47c0 8.499 6.861 15.36 15.36 15.36v0c8.499 0 15.36-6.861 15.36-15.36v0c0-8.448-6.861-15.36-15.36-15.36v0c-8.499 0-15.36 6.912-15.36 15.36zM343.040 605.594c0 8.448 6.861 15.36 15.36 15.36v0c8.499 0 15.36-6.912 15.36-15.36v0c0-8.499-6.861-15.36-15.36-15.36v0c-8.499 0-15.36 6.861-15.36 15.36zM358.4 193.843c-4.045 0-7.987 1.638-10.854 4.506s-4.506 6.81-4.506 10.854c0 4.096 1.638 8.038 4.506 10.906 5.734 5.683 16.026 5.683 21.709 0 2.867-2.867 4.506-6.861 4.506-10.906 0-3.994-1.638-7.992-4.506-10.854s-6.81-4.506-10.854-4.506zM665.6 689.306c-4.045 0-7.992 1.69-10.854 4.506-2.872 2.867-4.506 6.861-4.506 10.906 0 3.994 1.633 7.987 4.506 10.854 5.734 5.734 15.974 5.683 21.709 0 2.867-2.867 4.506-6.861 4.506-10.854 0-4.096-1.638-8.038-4.506-10.906-2.867-2.816-6.81-4.506-10.854-4.506zM650.24 308.326c0 8.499 6.861 15.36 15.36 15.36v0c8.499 0 15.36-6.861 15.36-15.36v0c0-8.443-6.861-15.36-15.36-15.36v0c-8.499 0-15.36 6.912-15.36 15.36zM650.24 407.45c0 8.448 6.861 15.36 15.36 15.36v0c8.499 0 15.36-6.912 15.36-15.36v0c0-8.499-6.861-15.36-15.36-15.36v0c-8.499 0-15.36 6.861-15.36 15.36zM650.24 506.522c0 8.499 6.861 15.36 15.36 15.36v0c8.499 0 15.36-6.861 15.36-15.36v0c0-8.499-6.861-15.36-15.36-15.36v0c-8.499 0-15.36 6.861-15.36 15.36zM650.24 605.594c0 8.499 6.861 15.36 15.36 15.36v0c8.499 0 15.36-6.861 15.36-15.36v0c0-8.499-6.861-15.36-15.36-15.36v0c-8.499 0-15.36 6.861-15.36 15.36zM665.6 193.894c-4.045 0-7.992 1.638-10.854 4.506-2.872 2.872-4.506 6.81-4.506 10.854s1.633 7.992 4.506 10.854c5.734 5.734 15.974 5.734 21.709 0 2.867-2.867 4.506-6.81 4.506-10.854s-1.638-7.987-4.506-10.854c-2.867-2.867-6.81-4.506-10.854-4.506z" />
<glyph unicode="&#xe947;" glyph-name="four-columns" d="M1007.77 111.447h-991.539v681.385h991.539v-681.385zM46.95 142.167h930.099v619.945h-930.099v-619.945zM512 688.742c-4.045 0-7.987 1.638-10.854 4.454-2.867 2.867-4.506 6.861-4.506 10.906s1.638 7.987 4.506 10.854c5.734 5.683 15.974 5.683 21.709 0 2.867-2.867 4.506-6.861 4.506-10.854 0-4.045-1.638-7.987-4.506-10.906-2.867-2.816-6.81-4.454-10.854-4.454zM496.64 307.717c0 8.494 6.861 15.36 15.36 15.36v0c8.499 0 15.36-6.866 15.36-15.36v0c0-8.448-6.861-15.36-15.36-15.36v0c-8.499 0-15.36 6.907-15.36 15.36zM496.64 406.835c0 8.448 6.861 15.36 15.36 15.36v0c8.499 0 15.36-6.912 15.36-15.36v0c0-8.499-6.861-15.36-15.36-15.36v0c-8.499 0-15.36 6.861-15.36 15.36zM496.64 505.907c0 8.499 6.861 15.36 15.36 15.36v0c8.499 0 15.36-6.861 15.36-15.36v0c0-8.499-6.861-15.36-15.36-15.36v0c-8.499 0-15.36 6.861-15.36 15.36zM496.64 604.979c0 8.499 6.861 15.36 15.36 15.36v0c8.499 0 15.36-6.861 15.36-15.36v0c0-8.499-6.861-15.36-15.36-15.36v0c-8.499 0-15.36 6.861-15.36 15.36zM512 193.28c-4.045 0-7.987 1.638-10.854 4.506-2.867 2.872-4.506 6.81-4.506 10.854s1.638 7.992 4.506 10.854c5.734 5.734 15.974 5.734 21.709 0 2.867-2.867 4.506-6.81 4.506-10.854s-1.638-7.987-4.506-10.854c-2.867-2.867-6.81-4.506-10.854-4.506zM256 689.306c-4.045 0-7.987 1.638-10.854 4.506s-4.506 6.81-4.506 10.854 1.638 7.987 4.506 10.854c5.734 5.734 16.026 5.734 21.709 0 2.867-2.867 4.506-6.81 4.506-10.854s-1.638-7.987-4.506-10.854c-2.867-2.867-6.81-4.506-10.854-4.506zM240.64 308.326c0 8.499 6.861 15.36 15.36 15.36v0c8.499 0 15.36-6.861 15.36-15.36v0c0-8.494-6.861-15.36-15.36-15.36v0c-8.499 0-15.36 6.866-15.36 15.36zM240.64 407.398c0 8.499 6.861 15.36 15.36 15.36v0c8.499 0 15.36-6.861 15.36-15.36v0c0-8.448-6.861-15.36-15.36-15.36v0c-8.499 0-15.36 6.912-15.36 15.36zM240.64 506.47c0 8.499 6.861 15.36 15.36 15.36v0c8.499 0 15.36-6.861 15.36-15.36v0c0-8.448-6.861-15.36-15.36-15.36v0c-8.499 0-15.36 6.912-15.36 15.36zM240.64 605.594c0 8.448 6.861 15.36 15.36 15.36v0c8.499 0 15.36-6.912 15.36-15.36v0c0-8.499-6.861-15.36-15.36-15.36v0c-8.499 0-15.36 6.861-15.36 15.36zM256 193.843c-4.045 0-7.987 1.638-10.854 4.506s-4.506 6.81-4.506 10.854c0 4.096 1.638 8.038 4.506 10.906 5.734 5.683 16.026 5.683 21.709 0 2.867-2.867 4.506-6.861 4.506-10.906 0-3.994-1.638-7.992-4.506-10.854s-6.81-4.506-10.854-4.506zM768 689.306c-4.045 0-7.992 1.69-10.854 4.506-2.872 2.867-4.506 6.861-4.506 10.906 0 3.994 1.633 7.987 4.506 10.854 5.734 5.734 15.974 5.683 21.709 0 2.867-2.867 4.506-6.861 4.506-10.854 0-4.096-1.638-8.038-4.506-10.906-2.867-2.816-6.81-4.506-10.854-4.506zM752.64 308.326c0 8.499 6.861 15.36 15.36 15.36v0c8.499 0 15.36-6.861 15.36-15.36v0c0-8.443-6.861-15.36-15.36-15.36v0c-8.499 0-15.36 6.912-15.36 15.36zM752.64 407.45c0 8.448 6.861 15.36 15.36 15.36v0c8.499 0 15.36-6.912 15.36-15.36v0c0-8.499-6.861-15.36-15.36-15.36v0c-8.499 0-15.36 6.861-15.36 15.36zM752.64 506.522c0 8.499 6.861 15.36 15.36 15.36v0c8.499 0 15.36-6.861 15.36-15.36v0c0-8.499-6.861-15.36-15.36-15.36v0c-8.499 0-15.36 6.861-15.36 15.36zM752.64 605.594c0 8.499 6.861 15.36 15.36 15.36v0c8.499 0 15.36-6.861 15.36-15.36v0c0-8.499-6.861-15.36-15.36-15.36v0c-8.499 0-15.36 6.861-15.36 15.36zM768 193.894c-4.045 0-7.992 1.638-10.854 4.506-2.872 2.872-4.506 6.81-4.506 10.854s1.633 7.992 4.506 10.854c5.734 5.734 15.974 5.734 21.709 0 2.867-2.867 4.506-6.81 4.506-10.854s-1.638-7.987-4.506-10.854c-2.867-2.867-6.81-4.506-10.854-4.506z" />
<glyph unicode="&#xe948;" glyph-name="one-third---two-third-column" d="M1007.77 111.447h-991.539v681.385h991.539v-681.385zM46.95 142.167h930.099v619.945h-930.099v-619.945zM358.4 689.306c-4.045 0-7.987 1.638-10.854 4.506s-4.506 6.81-4.506 10.854 1.638 7.987 4.506 10.854c5.734 5.734 16.026 5.734 21.709 0 2.867-2.867 4.506-6.81 4.506-10.854s-1.638-7.987-4.506-10.854c-2.867-2.867-6.81-4.506-10.854-4.506zM343.040 308.326c0 8.499 6.861 15.36 15.36 15.36v0c8.499 0 15.36-6.861 15.36-15.36v0c0-8.494-6.861-15.36-15.36-15.36v0c-8.499 0-15.36 6.866-15.36 15.36zM343.040 407.398c0 8.499 6.861 15.36 15.36 15.36v0c8.499 0 15.36-6.861 15.36-15.36v0c0-8.448-6.861-15.36-15.36-15.36v0c-8.499 0-15.36 6.912-15.36 15.36zM343.040 506.47c0 8.499 6.861 15.36 15.36 15.36v0c8.499 0 15.36-6.861 15.36-15.36v0c0-8.448-6.861-15.36-15.36-15.36v0c-8.499 0-15.36 6.912-15.36 15.36zM343.040 605.594c0 8.448 6.861 15.36 15.36 15.36v0c8.499 0 15.36-6.912 15.36-15.36v0c0-8.499-6.861-15.36-15.36-15.36v0c-8.499 0-15.36 6.861-15.36 15.36zM358.4 193.843c-4.045 0-7.987 1.638-10.854 4.506s-4.506 6.81-4.506 10.854c0 4.096 1.638 8.038 4.506 10.906 5.734 5.683 16.026 5.683 21.709 0 2.867-2.867 4.506-6.861 4.506-10.906 0-3.994-1.638-7.992-4.506-10.854s-6.81-4.506-10.854-4.506z" />
<glyph unicode="&#xe949;" glyph-name="two-third---one-third-column" d="M1007.77 111.447h-991.539v681.385h991.539v-681.385zM46.95 142.167h930.099v619.945h-930.099v-619.945zM665.6 689.306c-4.045 0-7.992 1.69-10.854 4.506-2.872 2.867-4.506 6.861-4.506 10.906 0 3.994 1.633 7.987 4.506 10.854 5.734 5.734 15.974 5.683 21.709 0 2.867-2.867 4.506-6.861 4.506-10.854 0-4.096-1.638-8.038-4.506-10.906-2.867-2.816-6.81-4.506-10.854-4.506zM650.24 308.326c0 8.499 6.861 15.36 15.36 15.36v0c8.499 0 15.36-6.861 15.36-15.36v0c0-8.443-6.861-15.36-15.36-15.36v0c-8.499 0-15.36 6.912-15.36 15.36zM650.24 407.45c0 8.448 6.861 15.36 15.36 15.36v0c8.499 0 15.36-6.912 15.36-15.36v0c0-8.499-6.861-15.36-15.36-15.36v0c-8.499 0-15.36 6.861-15.36 15.36zM650.24 506.522c0 8.499 6.861 15.36 15.36 15.36v0c8.499 0 15.36-6.861 15.36-15.36v0c0-8.499-6.861-15.36-15.36-15.36v0c-8.499 0-15.36 6.861-15.36 15.36zM650.24 605.594c0 8.499 6.861 15.36 15.36 15.36v0c8.499 0 15.36-6.861 15.36-15.36v0c0-8.499-6.861-15.36-15.36-15.36v0c-8.499 0-15.36 6.861-15.36 15.36zM665.6 193.894c-4.045 0-7.992 1.638-10.854 4.506-2.872 2.872-4.506 6.81-4.506 10.854s1.633 7.992 4.506 10.854c5.734 5.734 15.974 5.734 21.709 0 2.867-2.867 4.506-6.81 4.506-10.854s-1.638-7.987-4.506-10.854c-2.867-2.867-6.81-4.506-10.854-4.506z" />
<glyph unicode="&#xe94a;" glyph-name="three-fourth---one-fourth-column" d="M1007.77 111.447h-991.539v681.385h991.539v-681.385zM46.95 142.167h930.099v619.945h-930.099v-619.945zM768 689.306c-4.045 0-7.992 1.69-10.854 4.506-2.872 2.867-4.506 6.861-4.506 10.906 0 3.994 1.633 7.987 4.506 10.854 5.734 5.734 15.974 5.683 21.709 0 2.867-2.867 4.506-6.861 4.506-10.854 0-4.096-1.638-8.038-4.506-10.906-2.867-2.816-6.81-4.506-10.854-4.506zM752.64 308.326c0 8.499 6.861 15.36 15.36 15.36v0c8.499 0 15.36-6.861 15.36-15.36v0c0-8.443-6.861-15.36-15.36-15.36v0c-8.499 0-15.36 6.912-15.36 15.36zM752.64 407.45c0 8.448 6.861 15.36 15.36 15.36v0c8.499 0 15.36-6.912 15.36-15.36v0c0-8.499-6.861-15.36-15.36-15.36v0c-8.499 0-15.36 6.861-15.36 15.36zM752.64 506.522c0 8.499 6.861 15.36 15.36 15.36v0c8.499 0 15.36-6.861 15.36-15.36v0c0-8.499-6.861-15.36-15.36-15.36v0c-8.499 0-15.36 6.861-15.36 15.36zM752.64 605.594c0 8.499 6.861 15.36 15.36 15.36v0c8.499 0 15.36-6.861 15.36-15.36v0c0-8.499-6.861-15.36-15.36-15.36v0c-8.499 0-15.36 6.861-15.36 15.36zM768 193.894c-4.045 0-7.992 1.638-10.854 4.506-2.872 2.872-4.506 6.81-4.506 10.854s1.633 7.992 4.506 10.854c5.734 5.734 15.974 5.734 21.709 0 2.867-2.867 4.506-6.81 4.506-10.854s-1.638-7.987-4.506-10.854c-2.867-2.867-6.81-4.506-10.854-4.506z" />
<glyph unicode="&#xe94b;" glyph-name="one-fourth---three-fourth-column" d="M1007.77 111.447h-991.539v681.385h991.539v-681.385zM46.95 142.167h930.099v619.945h-930.099v-619.945zM256 689.306c-4.045 0-7.987 1.638-10.854 4.506s-4.506 6.81-4.506 10.854 1.638 7.987 4.506 10.854c5.734 5.734 16.026 5.734 21.709 0 2.867-2.867 4.506-6.81 4.506-10.854s-1.638-7.987-4.506-10.854c-2.867-2.867-6.81-4.506-10.854-4.506zM240.64 308.326c0 8.499 6.861 15.36 15.36 15.36v0c8.499 0 15.36-6.861 15.36-15.36v0c0-8.494-6.861-15.36-15.36-15.36v0c-8.499 0-15.36 6.866-15.36 15.36zM240.64 407.398c0 8.499 6.861 15.36 15.36 15.36v0c8.499 0 15.36-6.861 15.36-15.36v0c0-8.448-6.861-15.36-15.36-15.36v0c-8.499 0-15.36 6.912-15.36 15.36zM240.64 506.47c0 8.499 6.861 15.36 15.36 15.36v0c8.499 0 15.36-6.861 15.36-15.36v0c0-8.448-6.861-15.36-15.36-15.36v0c-8.499 0-15.36 6.912-15.36 15.36zM240.64 605.594c0 8.448 6.861 15.36 15.36 15.36v0c8.499 0 15.36-6.912 15.36-15.36v0c0-8.499-6.861-15.36-15.36-15.36v0c-8.499 0-15.36 6.861-15.36 15.36zM256 193.843c-4.045 0-7.987 1.638-10.854 4.506s-4.506 6.81-4.506 10.854c0 4.096 1.638 8.038 4.506 10.906 5.734 5.683 16.026 5.683 21.709 0 2.867-2.867 4.506-6.861 4.506-10.906 0-3.994-1.638-7.992-4.506-10.854s-6.81-4.506-10.854-4.506z" />
<glyph unicode="&#xe94c;" glyph-name="custom-trash" horiz-adv-x="803" d="M689.898 838.508h-130.169v17.356c0 56.407-47.729 104.136-104.136 104.136h-108.475c-56.407 0-104.136-47.729-104.136-104.136v-17.356h-130.169c-60.746 0-112.814-52.068-112.814-117.153v-65.085c0-21.695 17.356-34.712 34.712-34.712h43.39c0-4.339 0-8.678 0-8.678v-590.102c0-47.729 39.051-82.441 86.78-82.441h477.288c47.729 0 86.78 39.051 86.78 82.441v585.763c0 4.339 0 8.678 0 8.678h34.712c21.695 0 34.712 17.356 34.712 34.712v69.424c4.339 65.085-47.729 117.153-108.475 117.153zM642.169 18.441h-477.288v590.102h477.288v-590.102zM138.847 617.22v0zM316.746 855.864c0 17.356 13.017 30.373 30.373 30.373h108.475c17.356 0 30.373-13.017 30.373-30.373v-17.356h-169.22v17.356zM728.949 690.983h-655.186v30.373c0 21.695 17.356 43.39 43.39 43.39h572.746c21.695 0 43.39-17.356 43.39-43.39v-30.373z" />
<glyph unicode="&#xe94d;" glyph-name="one-fourth---one-half---one-fourth-column" d="M1007.77 111.447h-991.539v681.385h991.539v-681.385zM46.95 142.167h930.099v619.945h-930.099v-619.945zM256 689.306c-4.045 0-7.987 1.638-10.854 4.506s-4.506 6.81-4.506 10.854 1.638 7.987 4.506 10.854c5.734 5.734 16.026 5.734 21.709 0 2.867-2.867 4.506-6.81 4.506-10.854s-1.638-7.987-4.506-10.854c-2.867-2.867-6.81-4.506-10.854-4.506zM240.64 308.326c0 8.499 6.861 15.36 15.36 15.36v0c8.499 0 15.36-6.861 15.36-15.36v0c0-8.494-6.861-15.36-15.36-15.36v0c-8.499 0-15.36 6.866-15.36 15.36zM240.64 407.398c0 8.499 6.861 15.36 15.36 15.36v0c8.499 0 15.36-6.861 15.36-15.36v0c0-8.448-6.861-15.36-15.36-15.36v0c-8.499 0-15.36 6.912-15.36 15.36zM240.64 506.47c0 8.499 6.861 15.36 15.36 15.36v0c8.499 0 15.36-6.861 15.36-15.36v0c0-8.448-6.861-15.36-15.36-15.36v0c-8.499 0-15.36 6.912-15.36 15.36zM240.64 605.594c0 8.448 6.861 15.36 15.36 15.36v0c8.499 0 15.36-6.912 15.36-15.36v0c0-8.499-6.861-15.36-15.36-15.36v0c-8.499 0-15.36 6.861-15.36 15.36zM256 193.843c-4.045 0-7.987 1.638-10.854 4.506s-4.506 6.81-4.506 10.854c0 4.096 1.638 8.038 4.506 10.906 5.734 5.683 16.026 5.683 21.709 0 2.867-2.867 4.506-6.861 4.506-10.906 0-3.994-1.638-7.992-4.506-10.854s-6.81-4.506-10.854-4.506zM768 689.306c-4.045 0-7.992 1.69-10.854 4.506-2.872 2.867-4.506 6.861-4.506 10.906 0 3.994 1.633 7.987 4.506 10.854 5.734 5.734 15.974 5.683 21.709 0 2.867-2.867 4.506-6.861 4.506-10.854 0-4.096-1.638-8.038-4.506-10.906-2.867-2.816-6.81-4.506-10.854-4.506zM752.64 308.326c0 8.499 6.861 15.36 15.36 15.36v0c8.499 0 15.36-6.861 15.36-15.36v0c0-8.443-6.861-15.36-15.36-15.36v0c-8.499 0-15.36 6.912-15.36 15.36zM752.64 407.45c0 8.448 6.861 15.36 15.36 15.36v0c8.499 0 15.36-6.912 15.36-15.36v0c0-8.499-6.861-15.36-15.36-15.36v0c-8.499 0-15.36 6.861-15.36 15.36zM752.64 506.522c0 8.499 6.861 15.36 15.36 15.36v0c8.499 0 15.36-6.861 15.36-15.36v0c0-8.499-6.861-15.36-15.36-15.36v0c-8.499 0-15.36 6.861-15.36 15.36zM752.64 605.594c0 8.499 6.861 15.36 15.36 15.36v0c8.499 0 15.36-6.861 15.36-15.36v0c0-8.499-6.861-15.36-15.36-15.36v0c-8.499 0-15.36 6.861-15.36 15.36zM768 193.894c-4.045 0-7.992 1.638-10.854 4.506-2.872 2.872-4.506 6.81-4.506 10.854s1.633 7.992 4.506 10.854c5.734 5.734 15.974 5.734 21.709 0 2.867-2.867 4.506-6.81 4.506-10.854s-1.638-7.987-4.506-10.854c-2.867-2.867-6.81-4.506-10.854-4.506z" />
<glyph unicode="&#xe94e;" glyph-name="ic_code_black_24px" d="M401.067 251.733l-196.267 196.267 196.267 196.267-59.733 59.733-256-256 256-256 59.733 59.733zM622.933 251.733l196.267 196.267-196.267 196.267 59.733 59.733 256-256-256-256-59.733 59.733z" />
<glyph unicode="&#xe94f;" glyph-name="ic_compare_arrows_black_24px" d="M384.427 362.667h-299.093v-85.333h299.093v-128l170.24 170.667-170.24 170.667v-128zM639.573 405.333v128h299.093v85.333h-299.093v128l-170.24-170.667 170.24-170.667z" />
<glyph unicode="&#xe950;" glyph-name="ic_swap_horiz_black_24px" d="M298.24 490.667l-170.24-170.667 170.24-170.667v128h299.093v85.333h-299.093v128zM896 576l-170.24 170.667v-128h-299.093v-85.333h299.093v-128l170.24 170.667z" />
<glyph unicode="&#xe951;" glyph-name="ic_visibility_black_24px" d="M512 768c-213.333 0-395.52-132.693-469.333-320 73.813-187.307 256-320 469.333-320s395.52 132.693 469.333 320c-73.813 187.307-256 320-469.333 320zM512 234.667c-117.76 0-213.333 95.573-213.333 213.333s95.573 213.333 213.333 213.333 213.333-95.573 213.333-213.333-95.573-213.333-213.333-213.333zM512 576c-70.827 0-128-57.173-128-128s57.173-128 128-128 128 57.173 128 128-57.173 128-128 128z" />
<glyph unicode="&#xe952;" glyph-name="ic_zoom_in_black_24px" d="M661.333 362.667h-33.707l-11.947 11.52c41.813 48.64 66.987 111.787 66.987 180.48 0 153.173-124.16 277.333-277.333 277.333s-277.333-124.16-277.333-277.333 124.16-277.333 277.333-277.333c68.693 0 131.84 25.173 180.48 66.987l11.52-11.947v-33.707l213.333-212.907 63.573 63.573-212.907 213.333zM405.333 362.667c-106.24 0-192 85.76-192 192s85.76 192 192 192 192-85.76 192-192-85.76-192-192-192zM512 533.333h-85.333v-85.333h-42.667v85.333h-85.333v42.667h85.333v85.333h42.667v-85.333h85.333v-42.667z" />
<glyph unicode="&#xe953;" glyph-name="ic_replay_black_24px" d="M512 746.667v170.667l-213.333-213.333 213.333-213.333v170.667c141.227 0 256-114.773 256-256s-114.773-256-256-256-256 114.773-256 256h-85.333c0-188.587 152.747-341.333 341.333-341.333s341.333 152.747 341.333 341.333-152.747 341.333-341.333 341.333z" />
<glyph unicode="&#xe954;" glyph-name="ic_replay_black_24px_zz" d="M170.667 405.333c0-188.587 152.747-341.333 341.333-341.333s341.333 152.747 341.333 341.333h-85.333c0-141.227-114.773-256-256-256s-256 114.773-256 256 114.773 256 256 256v-170.667l213.333 213.333-213.333 213.333v-170.667c-188.587 0-341.333-152.747-341.333-341.333z" />
<glyph unicode="&#xe955;" glyph-name="ic_dashboard_black_24px" d="M128 405.333h341.333v426.667h-341.333v-426.667zM128 64h341.333v256h-341.333v-256zM554.667 64h341.333v426.667h-341.333v-426.667zM554.667 832v-256h341.333v256h-341.333z" />
<glyph unicode="&#xe956;" glyph-name="ic_theaters_black_24px" d="M768 832v-85.333h-85.333v85.333h-341.333v-85.333h-85.333v85.333h-85.333v-768h85.333v85.333h85.333v-85.333h341.333v85.333h85.333v-85.333h85.333v768h-85.333zM341.333 234.667h-85.333v85.333h85.333v-85.333zM341.333 405.333h-85.333v85.333h85.333v-85.333zM341.333 576h-85.333v85.333h85.333v-85.333zM768 234.667h-85.333v85.333h85.333v-85.333zM768 405.333h-85.333v85.333h85.333v-85.333zM768 576h-85.333v85.333h85.333v-85.333z" />
<glyph unicode="&#xe957;" glyph-name="ic_keyboard_arrow_up_black_24px" horiz-adv-x="1016" d="M159.289 171.141l348.919 348.919 348.919-348.919 106.193 106.193-455.111 455.111-455.111-455.111 106.193-106.193z" />
<glyph unicode="&#xe958;" glyph-name="ic_keyboard_arrow_down_black_24px" horiz-adv-x="1016" d="M857.126 732.444l-348.919-348.919-348.919 348.919-106.193-106.193 455.111-455.111 455.111 455.111-106.193 106.193z" />
<glyph unicode="&#xe959;" glyph-name="ic_tag_faces_black_24px" d="M511.573 874.667c-235.52 0-426.24-191.147-426.24-426.667s190.72-426.667 426.24-426.667c235.947 0 427.093 191.147 427.093 426.667s-191.147 426.667-427.093 426.667zM512 106.667c-188.587 0-341.333 152.747-341.333 341.333s152.747 341.333 341.333 341.333 341.333-152.747 341.333-341.333-152.747-341.333-341.333-341.333zM661.333 490.667c35.413 0 64 28.587 64 64s-28.587 64-64 64-64-28.587-64-64 28.587-64 64-64zM362.667 490.667c35.413 0 64 28.587 64 64s-28.587 64-64 64-64-28.587-64-64 28.587-64 64-64zM512 213.333c99.413 0 183.893 62.293 218.027 149.333h-436.053c34.133-87.040 118.613-149.333 218.027-149.333z" />
<glyph unicode="&#xe95a;" glyph-name="instagram" horiz-adv-x="1022" d="M510.826 316.242c-36.404 0-67.406 12.917-93.24 38.517s-38.517 56.837-38.517 93.24c0 36.404 12.917 67.406 38.517 93.24s56.837 38.517 93.24 38.517c36.404 0 67.406-12.917 93.24-38.517s38.517-56.837 38.517-93.24c0-36.404-12.917-67.406-38.517-93.24s-56.837-38.517-93.24-38.517zM510.826 650.686c-56.367 0-104.044-19.728-143.501-59.185s-59.185-87.369-59.185-143.501c0-56.367 19.728-104.044 59.185-143.501s87.369-59.185 143.501-59.185c56.367 0 104.044 19.728 143.501 59.185s59.185 87.369 59.185 143.501c0 56.367-19.728 104.044-59.185 143.501s-87.134 59.185-143.501 59.185zM721.732 706.349c-13.152 0-24.191-4.697-33.35-13.857s-13.857-20.433-13.857-33.35c0-13.152 4.697-24.191 13.857-33.35s20.433-13.857 33.35-13.857c13.152 0 24.191 4.697 33.35 13.857s13.857 20.433 13.857 33.35c0 13.152-4.697 24.191-13.857 33.35s-20.198 13.857-33.35 13.857zM604.536 772.58c12.448-0.235 28.888-0.705 49.556-1.644s38.517-2.583 53.079-5.167c14.561-2.583 26.774-5.637 36.873-9.629 17.145-6.811 32.176-16.91 45.328-29.828 13.152-13.152 23.017-28.183 29.828-45.328 3.758-9.864 7.046-22.312 9.629-36.873s4.228-32.176 5.167-53.079c0.939-20.668 1.409-37.343 1.644-49.556 0.235-12.448 0.235-30.532 0-54.253-0.235-23.956-0.235-36.873-0.235-39.457 0-2.349 0-15.501 0.235-39.457s0.235-42.040 0-54.253c-0.235-12.448-0.705-28.888-1.644-49.556s-2.583-38.517-5.167-53.079c-2.583-14.561-5.637-26.774-9.629-36.873-6.811-17.145-16.91-32.176-29.828-45.328-13.152-13.152-28.183-23.017-45.328-29.828-9.864-3.758-22.312-7.046-36.873-9.629s-32.176-4.228-53.079-5.167c-20.668-0.939-37.343-1.409-49.556-1.644-12.448-0.235-30.532-0.235-54.253 0-23.956 0.235-36.873 0.235-39.457 0.235-2.349 0-15.501 0-39.457-0.235s-42.040-0.235-54.253 0c-12.448 0.235-28.888 0.705-49.556 1.644s-38.517 2.583-53.079 5.167c-14.561 2.583-26.774 5.637-36.873 9.629-17.145 6.811-32.176 16.91-45.328 29.828-13.152 13.152-23.017 28.183-29.828 45.328-3.758 9.864-7.046 22.312-9.629 36.873s-4.228 32.176-5.167 53.079c-0.939 20.668-1.409 37.343-1.644 49.556-0.235 12.448-0.235 30.532 0 54.253 0.235 23.956 0.235 36.873 0.235 39.457 0 2.349 0 15.501-0.235 39.457s-0.235 42.040 0 54.253c0.235 12.448 0.705 28.888 1.644 49.556s2.583 38.517 5.167 53.079c2.583 14.561 5.637 26.774 9.629 36.873 6.811 17.145 16.91 32.176 29.828 45.328 13.152 13.152 28.183 23.017 45.328 29.828 9.864 3.758 22.312 7.046 36.873 9.629s32.176 4.228 53.079 5.167c20.668 0.939 37.343 1.409 49.556 1.644 12.448 0.235 30.532 0.235 54.253 0 23.956-0.235 36.873-0.235 39.457-0.235 2.349 0 15.501 0 39.457 0.235 23.721 0 41.806 0 54.253 0zM903.516 611.229c-3.523 71.398-24.661 126.591-63.883 165.813s-94.415 60.36-165.813 63.883c-30.297 1.644-84.55 2.583-163.229 2.583s-132.932-0.939-163.229-2.583c-71.163-3.523-126.356-24.895-165.343-64.117-39.222-39.222-60.36-94.415-63.883-165.813-1.644-30.297-2.583-84.55-2.583-163.229s0.939-132.932 2.583-163.229c3.523-71.398 24.661-126.591 63.883-165.813s94.415-60.36 165.813-63.883c30.297-1.644 84.55-2.583 163.229-2.583s132.932 0.939 163.229 2.583c71.398 3.523 126.591 24.661 165.813 63.883s60.36 94.415 63.883 165.813c1.644 30.297 2.583 84.55 2.583 163.229-0.47 78.914-1.409 133.167-3.053 163.464v0z" />
<glyph unicode="&#xe95b;" glyph-name="smartphone-1" horiz-adv-x="791" d="M544.778 802.395h-295.649c-26.118 0-48.49-21.448-48.49-48.49v-623.001c0-27.042 21.448-48.49 48.49-48.49h295.649c26.118 0 48.49 21.448 48.49 48.49v623.001c-0.924 27.042-22.387 48.49-48.49 48.49v0zM347.987 764.162h97.933c2.803 0 3.727-1.867 3.727-3.727 0-2.803-1.867-4.657-3.727-4.657h-97.933c-2.803 0-4.657 1.867-4.657 4.657 0 1.867 1.867 3.727 4.657 3.727v0zM430.059 116.92h-67.154c-10.256 0-19.588 8.392-19.588 19.588 0 10.256 8.392 19.588 19.588 19.588h67.154c10.256 0 19.588-8.392 19.588-19.588s-8.392-19.588-19.588-19.588v0zM558.762 183.131h-323.626v518.547h323.626v-518.547z" />
<glyph unicode="&#xe95c;" glyph-name="iphone" horiz-adv-x="791" d="M590.388 864.004h-389.775c-17.486 0-32.905-14.396-32.905-32.905v-766.189c0-17.486 14.396-32.905 32.905-32.905h389.775c17.486 0 32.905 14.396 32.905 32.905v766.189c-1.023 18.509-15.419 32.905-32.905 32.905v0zM357.965 110.156c0 20.566 16.458 37.028 37.028 37.028s37.028-16.458 37.028-37.028-16.458-37.028-37.028-37.028c-20.566 0-37.028 16.458-37.028 37.028v0zM202.668 178.042v595.473h384.639v-595.473h-384.639z" />
<glyph unicode="&#xe95d;" glyph-name="ipad-1" horiz-adv-x="919" d="M755.746 912.001h-592.492c-30.939 0-55.921-24.982-55.921-55.921v-816.159c0-30.939 24.982-55.921 55.921-55.921h592.492c30.939 0 55.921 24.982 55.921 55.921v816.159c0 30.939-24.982 55.921-55.921 55.921v0zM459.501 879.878c10.709 0 20.224-9.515 20.224-20.224s-9.515-20.224-20.224-20.224c-10.709 0-20.224 9.515-20.224 20.224s9.515 20.224 20.224 20.224v0zM459.501 11.366c-15.467 0-27.365 11.899-27.365 27.365s11.899 27.365 27.365 27.365c15.467 0 27.365-11.899 27.365-27.365s-11.899-27.365-27.365-27.365v0zM742.661 89.895h-567.505v715.032h567.505v-715.032z" />
<glyph unicode="&#xe95e;" glyph-name="notebook" horiz-adv-x="1143" d="M1136.818 162.243h-68.034c6.181 8.659 9.893 18.551 9.893 28.454v556.656c0 27.21-22.264 49.483-49.483 49.483h-916.623c-27.21 0-49.483-22.264-49.483-49.483v-556.656c0-11.137 3.713-21.030 9.893-29.688h-69.268c0 0-3.713-28.454 4.947-35.868 23.507-23.507 74.224-24.741 74.224-24.741v0c962.394 0 937.652-1.234 963.628 0 53.196 0 70.513 16.083 85.351 25.976 11.137 11.137 4.947 11.137 4.947 11.137v24.741zM634.592 137.501h-128.645v8.659h128.645v-8.659zM1016.833 201.823h-894.359v535.626h894.359v-535.626z" />
<glyph unicode="&#xe95f;" glyph-name="apple-monitor" horiz-adv-x="1159" d="M1054.936 908.591h-954.768c-19.375 0-36.174-16.797-36.174-36.174v-702.833c0-11.632 9.043-21.964 21.964-21.964h378.551c-1.289-41.339-11.632-126.617-54.26-144.704 0 0-16.797-15.508 31.007-15.508h273.899c47.804 0 31.007 15.508 31.007 15.508-43.928 18.086-52.971 102.065-54.26 144.704h382.429c11.632 0 20.675 9.043 20.675 21.964v91.732c0 0 0 1.289 0 1.289v609.812c-3.878 19.375-20.675 36.174-40.050 36.174v0zM552.355 221.257c0 14.21 11.632 24.551 24.551 24.551 14.21 0 24.551-11.632 24.551-24.551 0-14.21-11.632-24.551-24.551-24.551s-24.551 10.332-24.551 24.551v0zM1034.261 312.979h-913.429v533.588c0 2.589 2.589 5.167 5.167 5.167h903.097c2.589 0 5.167-2.589 5.167-5.167v-533.588z" />
<glyph unicode="&#xe960;" glyph-name="text" d="M870.4 960h-716.8c-28.262 0-51.199-22.937-51.199-51.199v-153.6h102.401v102.398h255.998v-819.199h-153.6v-102.401h409.6v102.401h-153.6v819.199h256.001v-102.401h102.398v153.6c0 28.265-22.937 51.202-51.199 51.202z" />
<glyph unicode="&#xe961;" glyph-name="on" d="M682.666 789.334h-341.332c-188.208 0-341.334-153.126-341.334-341.334s153.126-341.334 341.334-341.334h341.334c188.208 0 341.332 153.126 341.332 341.334s-153.124 341.334-341.334 341.334zM682.666 192c-141.166 0-256 114.834-256 256s114.834 256 256 256 256-114.834 256-256-114.832-256-256-256z" />
<glyph unicode="&#xe962;" glyph-name="slider" d="M891.648 490.668c-19.798 97.28-105.984 170.666-208.982 170.666s-189.184-73.43-208.982-170.666h-473.684v-85.334h473.686c19.84-97.238 105.984-170.666 208.982-170.666s189.184 73.43 208.982 170.666h132.35v85.334h-132.352zM682.666 320.002c-70.57 0-128 57.43-128 128s57.43 128 128 128c70.57 0 128-57.43 128-128s-57.428-128-128-128z" />
<glyph unicode="&#xe963;" glyph-name="select-list" d="M64 960h768v-128h-768v128zM64 448h832v-128h-832v128zM64 256h704v-128h-704v128zM64 64h896v-128h-896v128zM0 768v-256h1024v256h-1024zM704 576h-640v128h640v-128z" />
<glyph unicode="&#xe964;" glyph-name="drop" d="M176.050-63.984h671.916c97.061 0 176.034 78.989 176.034 176.050v671.916c0 97.045-78.973 176.018-176.034 176.018h-671.916c-97.077 0-176.050-78.973-176.050-176.018v-671.932c0-97.061 78.973-176.034 176.050-176.034zM95.282 783.982c0 44.529 36.223 80.736 80.768 80.736h671.916c44.529 0 80.752-36.207 80.752-80.736v-671.932c0-44.529-36.223-80.768-80.752-80.768h-671.916c-44.545-0.016-80.768 36.223-80.768 80.752v671.947zM444.492 297.66l67.365-67.349 0.048 0.032 0.032-0.032 67.349 67.349-0.032 0.048 151.42 151.404-67.365 67.365-102.778-102.778v251.99h-95.282v-253.975l-104.779 104.763-67.365-67.365 151.42-151.404z" />
<glyph unicode="&#xe965;" glyph-name="organization" d="M934.33 340.749c-0.432 0.25-0.874 0.482-1.308 0.724 1.012 11.902 1.558 23.936 1.558 36.096 0 168.968-99.698 315.065-243.342 382.623 0.002 0.514 0.038 1.022 0.038 1.54 0 99.012-80.264 179.276-179.276 179.276s-179.276-80.264-179.276-179.276c0-0.514 0.036-1.022 0.038-1.54-143.646-67.56-243.344-213.658-243.344-382.623 0-12.16 0.546-24.19 1.558-36.090-0.436-0.25-0.878-0.482-1.314-0.73-85.742-49.506-115.122-159.152-65.616-244.896 33.208-57.514 93.466-89.668 155.428-89.668 30.41 0 61.238 7.748 89.47 24.048 0.482 0.28 0.94 0.586 1.418 0.868 68.526-47.938 151.85-76.11 241.642-76.11 89.79 0 173.112 28.172 241.638 76.108 0.48-0.282 0.934-0.586 1.416-0.866 28.234-16.302 59.056-24.052 89.472-24.052 61.956 0 122.22 32.158 155.424 89.668 49.502 85.746 20.126 195.394-65.624 244.9zM512.001 864.176c56.488 0 102.444-45.954 102.444-102.444s-45.956-102.444-102.444-102.444c-56.488 0-102.444 45.954-102.444 102.444 0.002 56.49 45.958 102.444 102.444 102.444zM278.259 158.976c-7.084-26.43-24.034-48.526-47.734-62.206-15.582-8.998-33.236-13.754-51.050-13.754-36.578 0-70.638 19.638-88.89 51.252-28.244 48.92-11.422 111.696 37.5 139.942 15.582 9 33.238 13.754 51.052 13.754h0.008c36.57 0 70.628-19.638 88.88-51.252 13.682-23.696 17.316-51.302 10.234-77.736zM696.151 85.076c-53.352-33.708-116.506-53.252-184.148-53.252-67.646 0-130.802 19.544-184.156 53.252 37.152 55.048 42.152 128.672 6.716 190.054-33.204 57.512-93.462 89.668-155.42 89.668-0.002 0-0.002 0-0.008 0-4.198 0-8.4-0.162-12.606-0.46-0.166 4.394-0.276 8.802-0.276 13.234 0 132.446 74.868 247.714 184.496 305.763 29.088-59.716 90.358-100.876 161.252-100.876s132.162 41.156 161.252 100.876c109.628-58.050 184.496-173.316 184.496-305.763 0-4.43-0.11-8.838-0.276-13.23-4.2 0.294-8.4 0.458-12.592 0.458-0.006 0-0.010 0-0.016 0-61.956-0.002-122.226-32.16-155.428-89.672-35.438-61.384-30.436-135.006 6.714-190.052zM933.412 134.268c-18.252-31.614-52.31-51.252-88.888-51.252-17.814 0-35.468 4.756-51.056 13.756-48.92 28.244-65.74 91.022-37.496 139.94 18.25 31.614 52.312 51.252 88.89 51.256h0.016c17.804 0 35.454-4.754 51.038-13.754 48.922-28.244 65.74-91.024 37.496-139.946z" />
<glyph unicode="&#xe966;" glyph-name="multiple-resolutions" d="M934.563 960h-845.131c-49.4 0-89.43-40.037-89.43-89.432v-845.133c0-49.398 40.030-89.432 89.432-89.432h845.129c49.402 0 89.437 40.037 89.437 89.432v845.133c-0.002 49.395-40.035 89.432-89.437 89.432zM955.731 25.435c0-11.667-9.504-21.166-21.168-21.166h-320.498v320.498c0 11.667 9.499 21.168 21.166 21.168h320.501v-320.501zM635.231 414.199c-49.4 0-89.432-40.035-89.432-89.432v-320.501h-206.083v594.837c0 11.667 9.482 21.164 21.148 21.164h594.868v-206.068h-320.501zM360.864 688.534c-49.384 0-89.415-40.035-89.415-89.43v-594.835h-182.016c-11.667 0-21.166 9.499-21.166 21.166v845.133c0 11.667 9.499 21.166 21.166 21.166h845.131c11.667 0 21.168-9.502 21.168-21.166v-182.032h-594.868zM193.216 812.4c0-23.564-19.103-42.667-42.667-42.667s-42.667 19.103-42.667 42.667c0 23.564 19.103 42.667 42.667 42.667s42.667-19.103 42.667-42.667zM462.015 544.867c0-23.564-19.103-42.667-42.667-42.667s-42.667 19.103-42.667 42.667c0 23.564 19.103 42.667 42.667 42.667s42.667-19.103 42.667-42.667zM733.063 269.599c0-23.564-19.103-42.667-42.667-42.667s-42.667 19.103-42.667 42.667c0 23.564 19.103 42.667 42.667 42.667s42.667-19.103 42.667-42.667z" />
<glyph unicode="&#xe967;" glyph-name="calculator" d="M932.713 960h-841.426c-50.336 0-91.287-40.951-91.287-91.287v-841.428c0-50.334 40.951-91.285 91.287-91.285h841.428c50.334 0 91.285 40.951 91.285 91.287v841.426c0 50.336-40.951 91.287-91.287 91.287zM958.359 27.287c0-14.141-11.505-25.646-25.646-25.646h-841.426c-14.141 0-25.646 11.505-25.646 25.646v841.426c0 14.141 11.505 25.646 25.646 25.646h841.428c14.139 0 25.644-11.505 25.644-25.646v-841.426zM401.441 678.153h-85.327v85.329c0 18.126-14.695 32.821-32.821 32.821s-32.821-14.695-32.821-32.821v-85.327h-85.327c-18.126 0-32.821-14.695-32.821-32.821s14.695-32.821 32.821-32.821h85.327v-85.327c0-18.126 14.695-32.821 32.821-32.821s32.821 14.695 32.821 32.821v85.327h85.327c18.126 0 32.821 14.695 32.821 32.821s-14.695 32.818-32.821 32.818zM390.043 349.493c-12.815 12.815-33.597 12.815-46.415 0l-60.335-60.337-60.335 60.337c-12.815 12.82-33.597 12.815-46.415 0-12.818-12.818-12.818-33.597 0-46.415l60.335-60.337-60.335-60.337c-12.818-12.815-12.818-33.597 0-46.415 6.409-6.409 14.809-9.612 23.206-9.612 8.4 0 16.8 3.205 23.206 9.612l60.335 60.337 60.335-60.337c6.409-6.411 14.809-9.612 23.206-9.612s16.8 3.205 23.206 9.612c12.818 12.815 12.818 33.597 0 46.415l-60.335 60.337 60.335 60.337c12.822 12.815 12.822 33.597 0.004 46.415zM844.496 678.153h-236.297c-18.126 0-32.821-14.695-32.821-32.821s14.695-32.821 32.821-32.821h236.297c18.126 0 32.821 14.695 32.821 32.821 0 18.128-14.695 32.821-32.821 32.821zM833.098 353.862c-12.815 12.82-33.597 12.818-46.415 0l-167.087-167.085c-12.818-12.815-12.818-33.597 0-46.415 6.409-6.411 14.809-9.614 23.208-9.614s16.8 3.205 23.206 9.614l167.087 167.085c12.818 12.815 12.818 33.597 0 46.415zM674.63 321.304c0-22.309-18.085-40.393-40.393-40.393s-40.393 18.085-40.393 40.393c0 22.309 18.085 40.393 40.393 40.393s40.393-18.085 40.393-40.393zM858.852 172.916c0-22.309-18.085-40.393-40.393-40.393s-40.393 18.085-40.393 40.393c0 22.309 18.085 40.393 40.393 40.393s40.393-18.085 40.393-40.393z" />
</font>
</defs>
</svg>
